# File produced by Open Asset Import Library (http://www.assimp.sf.net)
# (assimp v3.1.118612264)

mtllib bottle2.mtl

# vertex positions
v 0.849305 0.092778 0.608342
v 0.849305 0.093610 0.599835
v 0.857982 0.093610 0.602160
v 0.853729 0.092778 0.609527
v 0.849305 0.132455 0.571840
v 0.849305 0.141177 0.572712
v 0.871544 0.141177 0.578671
v 0.871980 0.132455 0.577916
v 0.849305 0.092498 0.617189
v 0.849305 0.124227 0.572712
v 0.871544 0.124227 0.578671
v 0.849305 0.114116 0.575292
v 0.870254 0.114116 0.580905
v 0.849305 0.170919 0.592822
v 0.849305 0.175974 0.601172
v 0.857314 0.175974 0.603317
v 0.861489 0.170919 0.596087
v 0.849305 0.104264 0.579483
v 0.868158 0.104264 0.584535
v 0.849305 0.164406 0.585133
v 0.865333 0.164406 0.589427
v 0.849305 0.097729 0.585123
v 0.865339 0.097729 0.589419
v 0.849305 0.157524 0.579483
v 0.868158 0.157524 0.584535
v 0.849305 0.094960 0.591995
v 0.861903 0.094960 0.595370
v 0.849305 0.149684 0.575292
v 0.870254 0.149684 0.580905
v 0.871124 0.094960 0.604592
v 0.864335 0.093610 0.608512
v 0.885589 0.149684 0.596241
v 0.887824 0.141177 0.594950
v 0.856967 0.092778 0.612765
v 0.888578 0.132455 0.594515
v 0.887824 0.124227 0.594950
v 0.885589 0.114116 0.596241
v 0.863177 0.175974 0.609180
v 0.870407 0.170919 0.605006
v 0.881960 0.104264 0.598336
v 0.877067 0.164406 0.601161
v 0.877076 0.097729 0.601156
v 0.881960 0.157524 0.598336
v 0.865323 0.175974 0.617189
v 0.873672 0.170919 0.617189
v 0.891202 0.114116 0.617189
v 0.887011 0.104264 0.617189
v 0.881361 0.164406 0.617189
v 0.881372 0.097729 0.617189
v 0.887011 0.157524 0.617189
v 0.874500 0.094960 0.617189
v 0.891202 0.149684 0.617189
v 0.866660 0.093610 0.617189
v 0.893783 0.141177 0.617189
v 0.858152 0.092778 0.617189
v 0.894654 0.132455 0.617189
v 0.893783 0.124227 0.617189
v 0.885589 0.149684 0.638137
v 0.887824 0.141177 0.639427
v 0.864335 0.093610 0.625866
v 0.856967 0.092778 0.621612
v 0.888578 0.132455 0.639863
v 0.887824 0.124227 0.639427
v 0.885589 0.114116 0.638137
v 0.863177 0.175974 0.625198
v 0.870407 0.170919 0.629372
v 0.881960 0.104264 0.636042
v 0.877067 0.164406 0.633217
v 0.877076 0.097729 0.633222
v 0.881960 0.157524 0.636042
v 0.871124 0.094960 0.629786
v 0.870254 0.114116 0.653472
v 0.868158 0.104264 0.649843
v 0.861489 0.170919 0.638291
v 0.865333 0.164406 0.644950
v 0.865339 0.097729 0.644959
v 0.868158 0.157524 0.649843
v 0.861903 0.094960 0.639008
v 0.870254 0.149684 0.653472
v 0.857982 0.093610 0.632218
v 0.871544 0.141177 0.655707
v 0.853729 0.092778 0.624851
v 0.871980 0.132455 0.656462
v 0.871544 0.124227 0.655707
v 0.857314 0.175974 0.631060
v 0.849305 0.093610 0.634543
v 0.849305 0.092778 0.626036
v 0.849305 0.141177 0.661666
v 0.849305 0.132455 0.662537
v 0.849305 0.124227 0.661666
v 0.849305 0.114116 0.659085
v 0.849305 0.175974 0.633206
v 0.849305 0.170919 0.641555
v 0.849305 0.104264 0.654895
v 0.849305 0.164406 0.649245
v 0.849305 0.097729 0.649255
v 0.849305 0.157524 0.654895
v 0.849305 0.094960 0.642383
v 0.849305 0.149684 0.659085
v 0.837122 0.170919 0.638291
v 0.833277 0.164406 0.644950
v 0.830452 0.104264 0.649843
v 0.833272 0.097729 0.644959
v 0.830452 0.157524 0.649843
v 0.836708 0.094960 0.639008
v 0.828357 0.149684 0.653472
v 0.840628 0.093610 0.632218
v 0.827067 0.141177 0.655707
v 0.844882 0.092778 0.624851
v 0.826631 0.132455 0.656462
v 0.862486 0.196911 0.617189
v 0.860720 0.196911 0.623779
v 0.827067 0.124227 0.655707
v 0.841297 0.175974 0.603317
v 0.835434 0.175974 0.609180
v 0.837890 0.196911 0.610598
v 0.842715 0.196911 0.605774
v 0.828357 0.114116 0.653472
v 0.841297 0.175974 0.631060
v 0.810787 0.141177 0.639427
v 0.810032 0.132455 0.639863
v 0.835434 0.175974 0.625198
v 0.842715 0.196911 0.628604
v 0.837890 0.196911 0.623779
v 0.841644 0.092778 0.621612
v 0.810787 0.124227 0.639427
v 0.855896 0.196911 0.628604
v 0.849305 0.196911 0.630370
v 0.813022 0.114116 0.638137
v 0.828203 0.170919 0.629372
v 0.816651 0.104264 0.636042
v 0.821544 0.164406 0.633217
v 0.821535 0.097729 0.633222
v 0.816651 0.157524 0.636042
v 0.827487 0.094960 0.629786
v 0.813022 0.149684 0.638137
v 0.834276 0.093610 0.625866
v 0.811599 0.104264 0.617189
v 0.817239 0.097729 0.617189
v 0.817249 0.164406 0.617189
v 0.811599 0.157524 0.617189
v 0.824111 0.094960 0.617189
v 0.807409 0.149684 0.617189
v 0.831951 0.093610 0.617189
v 0.804828 0.141177 0.617189
v 0.840458 0.092778 0.617189
v 0.803957 0.132455 0.617189
v 0.860720 0.196911 0.610598
v 0.804828 0.124227 0.617189
v 0.849305 0.196911 0.604008
v 0.807409 0.114116 0.617189
v 0.833288 0.175974 0.617189
v 0.824939 0.170919 0.617189
v 0.841644 0.092778 0.612765
v 0.810032 0.132455 0.594515
v 0.810787 0.124227 0.594950
v 0.813022 0.114116 0.596241
v 0.828203 0.170919 0.605006
v 0.816651 0.104264 0.598336
v 0.821544 0.164406 0.601161
v 0.821535 0.097729 0.601156
v 0.816651 0.157524 0.598336
v 0.827487 0.094960 0.604592
v 0.813022 0.149684 0.596241
v 0.834276 0.093610 0.608512
v 0.810787 0.141177 0.594950
v 0.836125 0.196911 0.617189
v 0.833272 0.097729 0.589419
v 0.836708 0.094960 0.595370
v 0.830452 0.157524 0.584535
v 0.828357 0.149684 0.580905
v 0.840628 0.093610 0.602160
v 0.827067 0.141177 0.578671
v 0.844882 0.092778 0.609527
v 0.826631 0.132455 0.577916
v 0.827067 0.124227 0.578671
v 0.855896 0.196911 0.605774
v 0.828357 0.114116 0.580905
v 0.837122 0.170919 0.596087
v 0.830452 0.104264 0.584535
v 0.833277 0.164406 0.589427
v 0.857868 0.200946 0.632019
v 0.849305 0.200946 0.634313
v 0.840743 0.200946 0.602359
v 0.849305 0.200946 0.600064
v 0.857868 0.200946 0.602359
v 0.864136 0.200946 0.608627
v 0.834475 0.200946 0.608627
v 0.834475 0.200946 0.625751
v 0.832181 0.200946 0.617189
v 0.840743 0.200946 0.632019
v 0.866430 0.200946 0.617189
v 0.864136 0.200946 0.625751
v 0.837723 0.204679 0.623876
v 0.835931 0.204679 0.617189
v 0.855993 0.204679 0.605606
v 0.860888 0.204679 0.610502
v 0.842618 0.204679 0.605606
v 0.849305 0.204679 0.603814
v 0.860888 0.204679 0.623876
v 0.855993 0.204679 0.628771
v 0.842618 0.204679 0.628771
v 0.837723 0.204679 0.610502
v 0.862680 0.204679 0.617189
v 0.849305 0.204679 0.630563
v 0.845663 0.204679 0.623060
v 0.855395 0.204679 0.620452
v 0.843215 0.204679 0.613925
v 0.852948 0.204679 0.611318
v 0.849305 0.200352 0.605157
v 0.849305 0.216187 0.602610
v 0.857015 0.216187 0.604450
v 0.855584 0.200352 0.606656
v 0.862658 0.216187 0.609475
v 0.860181 0.200352 0.610749
v 0.864724 0.216187 0.616340
v 0.861863 0.200352 0.616340
v 0.862658 0.216187 0.623206
v 0.860181 0.200352 0.621932
v 0.857015 0.216187 0.628231
v 0.855584 0.200352 0.626025
v 0.849305 0.216187 0.630071
v 0.849305 0.200352 0.627523
v 0.841596 0.216187 0.628231
v 0.843027 0.200352 0.626025
v 0.835953 0.216187 0.623206
v 0.838430 0.200352 0.621932
v 0.833887 0.216187 0.616340
v 0.836748 0.200352 0.616340
v 0.835953 0.216187 0.609475
v 0.838430 0.200352 0.610749
v 0.841596 0.216187 0.604450
v 0.843027 0.200352 0.606656
v 0.860988 0.217798 0.622347
v 0.856050 0.217798 0.626744
v 0.862795 0.217798 0.616340
v 0.842561 0.217798 0.605937
v 0.849305 0.217798 0.604327
v 0.856050 0.217798 0.605937
v 0.860988 0.217798 0.610334
v 0.837623 0.217798 0.610334
v 0.835816 0.217798 0.616340
v 0.837623 0.217798 0.622347
v 0.842561 0.217798 0.626744
v 0.849305 0.217798 0.628353
v 0.843384 0.217798 0.613069
v 0.846014 0.217798 0.621810
v 0.852597 0.217798 0.610870
v 0.855227 0.217798 0.619612

# UV coordinates
vt 0.421748 0.460486
vt 0.404714 0.434528
vt 0.426686 0.415211
vt 0.432913 0.450660
vt 0.187758 0.553893
vt 0.204649 0.552577
vt 0.207575 0.620843
vt 0.190160 0.622367
vt 0.439368 0.487305
vt 0.171907 0.554963
vt 0.173563 0.623562
vt 0.151166 0.555968
vt 0.152022 0.624148
vt 0.292291 0.538721
vt 0.333510 0.534380
vt 0.340076 0.594869
vt 0.297407 0.603238
vt 0.128150 0.556649
vt 0.128542 0.623874
vt 0.262516 0.544928
vt 0.267304 0.610876
vt 0.107561 0.556913
vt 0.107038 0.623334
vt 0.241121 0.548344
vt 0.245456 0.615373
vt 0.085528 0.558408
vt 0.085038 0.623015
vt 0.222156 0.550735
vt 0.225971 0.618569
vt 0.051873 0.558941
vt 0.055065 0.621293
vt 0.080808 0.687367
vt 0.049171 0.682464
vt 0.231073 0.689492
vt 0.211610 0.692824
vt 0.452054 0.415213
vt 0.445810 0.450653
vt 0.192845 0.694939
vt 0.175138 0.695978
vt 0.152060 0.696005
vt 0.342923 0.654831
vt 0.304189 0.667659
vt 0.126796 0.694272
vt 0.274141 0.678118
vt 0.104143 0.691527
vt 0.251594 0.684722
vt 0.350373 0.709554
vt 0.315340 0.730087
vt 0.150309 0.774959
vt 0.121845 0.771010
vt 0.285298 0.747160
vt 0.097008 0.764505
vt 0.261574 0.758145
vt 0.073678 0.755989
vt 0.239252 0.766137
vt 0.040841 0.744390
vt 0.217628 0.771662
vt 0.474021 0.434524
vt 0.456983 0.460466
vt 0.196502 0.774951
vt 0.176339 0.776172
vt 0.253607 0.853909
vt 0.227831 0.863775
vt 0.486705 0.467981
vt 0.463426 0.477478
vt 0.202088 0.870473
vt 0.177106 0.872212
vt 0.144864 0.869010
vt 0.367621 0.756531
vt 0.334886 0.791618
vt 0.111311 0.858072
vt 0.304766 0.820021
vt 0.082711 0.844692
vt 0.279273 0.839573
vt 0.057055 0.827888
vt 0.025604 0.804158
vt 0.132000 0.993220
vt 0.085070 0.970764
vt 0.368068 0.849030
vt 0.340820 0.898741
vt 0.051505 0.937104
vt 0.312184 0.934335
vt 0.025495 0.901336
vt 0.281404 0.964009
vt 0.000114 0.856625
vt 0.247444 0.985965
vt 0.486708 0.506625
vt 0.463433 0.497114
vt 0.211813 0.996449
vt 0.177519 0.999886
vt 0.391801 0.796374
vt 0.474021 0.540086
vt 0.456989 0.514125
vt 0.162877 0.001670
vt 0.197258 0.000114
vt 0.195291 0.119556
vt 0.170748 0.120818
vt 0.131687 0.010919
vt 0.147802 0.125208
vt 0.093658 0.032832
vt 0.119453 0.135940
vt 0.335898 0.095433
vt 0.364972 0.146213
vt 0.342238 0.190132
vt 0.307714 0.161833
vt 0.058207 0.066449
vt 0.090620 0.151992
vt 0.300900 0.052570
vt 0.274604 0.141265
vt 0.033192 0.100401
vt 0.067761 0.170073
vt 0.267439 0.025166
vt 0.247085 0.129319
vt 0.016418 0.135838
vt 0.047823 0.189240
vt 0.232573 0.007764
vt 0.220763 0.122273
vt 0.000114 0.176023
vt 0.024229 0.214704
vt 0.293273 0.226758
vt 0.262785 0.216891
vt 0.107481 0.227272
vt 0.085882 0.236878
vt 0.238585 0.211967
vt 0.065506 0.248150
vt 0.216369 0.209289
vt 0.038879 0.264273
vt 0.195473 0.208384
vt 0.452047 0.559400
vt 0.445823 0.523949
vt 0.175281 0.209428
vt 0.412134 0.381963
vt 0.404943 0.348102
vt 0.462209 0.323212
vt 0.468126 0.351077
vt 0.156496 0.212555
vt 0.392029 0.207548
vt 0.392841 0.171982
vt 0.452250 0.178280
vt 0.451582 0.207548
vt 0.132658 0.218158
vt 0.330684 0.242466
vt 0.196424 0.284358
vt 0.178549 0.285380
vt 0.399314 0.101535
vt 0.404943 0.066995
vt 0.462209 0.091885
vt 0.457577 0.120309
vt 0.432926 0.523955
vt 0.161736 0.287206
vt 0.412134 0.033134
vt 0.420851 0.000114
vt 0.475300 0.036848
vt 0.468126 0.064020
vt 0.140143 0.290690
vt 0.326096 0.298023
vt 0.287722 0.290242
vt 0.116766 0.295987
vt 0.257734 0.285759
vt 0.096004 0.301270
vt 0.235399 0.284417
vt 0.075552 0.308227
vt 0.215353 0.283844
vt 0.047276 0.318739
vt 0.426678 0.559395
vt 0.122178 0.361636
vt 0.101779 0.364494
vt 0.256331 0.351794
vt 0.234903 0.352289
vt 0.081178 0.368922
vt 0.215849 0.352856
vt 0.051765 0.375936
vt 0.198102 0.353636
vt 0.404711 0.540076
vt 0.421755 0.514140
vt 0.181259 0.354775
vt 0.399314 0.313562
vt 0.457577 0.294788
vt 0.165333 0.356149
vt 0.392841 0.243115
vt 0.452250 0.236817
vt 0.144751 0.358450
vt 0.325572 0.355811
vt 0.286617 0.352044
vt 0.415301 0.497135
vt 0.183476 0.421524
vt 0.167920 0.422617
vt 0.420851 0.414983
vt 0.475300 0.378249
vt 0.147715 0.424228
vt 0.326645 0.414906
vt 0.286600 0.413605
vt 0.125381 0.426183
vt 0.257076 0.416365
vt 0.105001 0.427590
vt 0.235965 0.417938
vt 0.084108 0.430443
vt 0.217301 0.419142
vt 0.053717 0.435066
vt 0.199970 0.420197
vt 0.392029 0.506627
vt 0.395273 0.136587
vt 0.454252 0.149153
vt 0.106660 0.491428
vt 0.085305 0.493288
vt 0.238064 0.482892
vt 0.219421 0.484678
vt 0.053770 0.495914
vt 0.202127 0.486055
vt 0.392029 0.467996
vt 0.415307 0.477496
vt 0.185601 0.487330
vt 0.169988 0.488453
vt 0.395273 0.278510
vt 0.454252 0.265943
vt 0.149731 0.489685
vt 0.329211 0.474476
vt 0.288646 0.475784
vt 0.127252 0.490910
vt 0.259167 0.480384
vt 0.508539 0.360863
vt 0.511445 0.393745
vt 0.493308 0.400935
vt 0.492394 0.362919
vt 0.510096 0.172373
vt 0.508252 0.207151
vt 0.491881 0.205537
vt 0.492234 0.171510
vt 0.508377 0.107512
vt 0.508900 0.138642
vt 0.492734 0.138954
vt 0.493267 0.107722
vt 0.506254 0.239464
vt 0.490755 0.238229
vt 0.505197 0.269691
vt 0.505933 0.299478
vt 0.491205 0.300477
vt 0.491291 0.269605
vt 0.507055 0.329826
vt 0.491906 0.331237
vt 0.508390 0.077220
vt 0.493756 0.076317
vt 0.514528 0.008821
vt 0.510802 0.044967
vt 0.493882 0.042511
vt 0.494631 0.000114
vt 0.476878 0.301516
vt 0.475734 0.269728
vt 0.479266 0.138247
vt 0.479210 0.107905
vt 0.475529 0.204695
vt 0.477253 0.170121
vt 0.477603 0.043409
vt 0.475529 0.006351
vt 0.477981 0.332240
vt 0.476687 0.238056
vt 0.478786 0.076720
vt 0.478627 0.362601
vt 0.476635 0.395047
vt 0.486937 0.485520
vt 0.486937 0.455804
vt 0.504708 0.479240
vt 0.496694 0.511254
vt 0.496694 0.430069
vt 0.518907 0.441787
vt 0.513593 0.415211
vt 0.533106 0.415211
vt 0.527792 0.499536
vt 0.513593 0.526112
vt 0.541991 0.462084
vt 0.550005 0.430069
vt 0.550005 0.511254
vt 0.533106 0.526112
vt 0.559762 0.485520
vt 0.559762 0.455804
vt 0.192770 0.994481
vt 0.026022 0.999893
vt 0.034950 0.921600
vt 0.193685 0.927093
vt 0.037260 0.849628
vt 0.197827 0.855572
vt 0.037015 0.775889
vt 0.202574 0.781718
vt 0.035963 0.699602
vt 0.207419 0.705192
vt 0.034629 0.620401
vt 0.212224 0.625852
vt 0.033515 0.537818
vt 0.216945 0.543683
vt 0.034095 0.450562
vt 0.221563 0.458967
vt 0.036402 0.361929
vt 0.226107 0.373013
vt 0.039519 0.275400
vt 0.230724 0.286808
vt 0.040846 0.190532
vt 0.235510 0.200098
vt 0.040841 0.102388
vt 0.240566 0.111733
vt 0.034712 0.000107
vt 0.246920 0.025627
vt 0.421388 0.295581
vt 0.485170 0.332406
vt 0.521994 0.396187
vt 0.521994 0.469836
vt 0.485170 0.533618
vt 0.421388 0.570442
vt 0.347739 0.570442
vt 0.283957 0.533618
vt 0.247133 0.469836
vt 0.247133 0.396187
vt 0.283957 0.332406
vt 0.347739 0.295581
vt 0.009263 0.700106
vt 0.006793 0.620960
vt 0.011323 0.776204
vt 0.009559 0.104016
vt 0.000107 0.009883
vt 0.000107 0.990878
vt 0.011354 0.919604
vt 0.012544 0.849420
vt 0.012954 0.190543
vt 0.010243 0.274462
vt 0.006203 0.360780
vt 0.001922 0.450060
vt 0.004159 0.538210
vt 0.502837 0.255810
vt 0.434321 0.295368
vt 0.452333 0.201774
vt 0.542394 0.187295
vt 0.355206 0.295368
vt 0.337194 0.201774
vt 0.286691 0.255810
vt 0.247133 0.187295
vt 0.452333 0.093701
vt 0.542394 0.108180
vt 0.337194 0.093701
vt 0.247133 0.108180
vt 0.434321 0.000107
vt 0.502837 0.039664
vt 0.355206 0.000107
vt 0.286691 0.039664

# vertex normals
vn 0.000000 -0.997547 -0.070003
vn 0.000000 -0.990208 -0.139601
vn 0.069801 -0.990207 -0.120901
vn 0.035002 -0.997548 -0.060603
vn 0.000000 -0.002900 -0.999996
vn 0.000000 0.192807 -0.981237
vn 0.490595 0.192798 -0.849791
vn 0.500009 -0.002900 -0.866015
vn 0.000000 -1.000000 0.000000
vn 0.000000 -0.174704 -0.984621
vn 0.492306 -0.174702 -0.852710
vn 0.000000 -0.316498 -0.948593
vn 0.474301 -0.316501 -0.821502
vn 0.000000 0.805628 -0.592421
vn 0.000000 0.855430 -0.517918
vn 0.259007 0.855425 -0.448513
vn 0.296200 0.805601 -0.513101
vn 0.000000 -0.517610 -0.855617
vn 0.427799 -0.517599 -0.740999
vn 0.000000 0.694293 -0.719693
vn 0.359885 0.694271 -0.623274
vn 0.000000 -0.795090 -0.606492
vn 0.303283 -0.795054 -0.525270
vn 0.000000 0.548292 -0.836287
vn 0.418172 0.548263 -0.724251
vn 0.000000 -0.957208 -0.289402
vn 0.144699 -0.957190 -0.250697
vn 0.000000 0.377090 -0.926176
vn 0.463093 0.377094 -0.802088
vn 0.250697 -0.957190 -0.144699
vn 0.120901 -0.990207 -0.069801
vn 0.802088 0.377094 -0.463093
vn 0.849791 0.192798 -0.490595
vn 0.060603 -0.997548 -0.035002
vn 0.866015 -0.002900 -0.500009
vn 0.852710 -0.174702 -0.492306
vn 0.821502 -0.316501 -0.474301
vn 0.448513 0.855425 -0.259007
vn 0.513101 0.805601 -0.296200
vn 0.740999 -0.517599 -0.427799
vn 0.623274 0.694271 -0.359885
vn 0.525270 -0.795054 -0.303283
vn 0.724251 0.548263 -0.418172
vn 0.517918 0.855430 0.000000
vn 0.592421 0.805628 0.000000
vn 0.948593 -0.316498 0.000000
vn 0.855617 -0.517610 0.000000
vn 0.719693 0.694293 0.000000
vn 0.606492 -0.795090 0.000000
vn 0.836287 0.548292 0.000000
vn 0.289402 -0.957208 0.000000
vn 0.926176 0.377090 0.000000
vn 0.139601 -0.990208 0.000000
vn 0.981237 0.192807 0.000000
vn 0.070003 -0.997547 0.000000
vn 0.999996 -0.002900 0.000000
vn 0.984621 -0.174704 0.000000
vn 0.802088 0.377094 0.463093
vn 0.849791 0.192798 0.490595
vn 0.120901 -0.990207 0.069801
vn 0.060603 -0.997548 0.035002
vn 0.866015 -0.002900 0.500009
vn 0.852710 -0.174702 0.492306
vn 0.821502 -0.316501 0.474301
vn 0.448513 0.855425 0.259007
vn 0.513101 0.805601 0.296200
vn 0.740999 -0.517599 0.427799
vn 0.623274 0.694271 0.359885
vn 0.525270 -0.795054 0.303283
vn 0.724251 0.548263 0.418172
vn 0.250697 -0.957190 0.144699
vn 0.474301 -0.316501 0.821502
vn 0.427799 -0.517599 0.740999
vn 0.296200 0.805601 0.513101
vn 0.359885 0.694271 0.623274
vn 0.303283 -0.795054 0.525270
vn 0.418172 0.548263 0.724251
vn 0.144699 -0.957190 0.250697
vn 0.463093 0.377094 0.802088
vn 0.069801 -0.990207 0.120901
vn 0.490595 0.192798 0.849791
vn 0.035002 -0.997548 0.060603
vn 0.500009 -0.002900 0.866015
vn 0.492306 -0.174702 0.852710
vn 0.259007 0.855425 0.448513
vn 0.000000 -0.990208 0.139601
vn 0.000000 -0.997547 0.070003
vn 0.000000 0.192807 0.981237
vn 0.000000 -0.002900 0.999996
vn 0.000000 -0.174704 0.984621
vn 0.000000 -0.316498 0.948593
vn 0.000000 0.855430 0.517918
vn 0.000000 0.805628 0.592421
vn 0.000000 -0.517610 0.855617
vn 0.000000 0.694293 0.719693
vn 0.000000 -0.795090 0.606492
vn 0.000000 0.548292 0.836287
vn 0.000000 -0.957208 0.289402
vn 0.000000 0.377090 0.926176
vn -0.296200 0.805601 0.513101
vn -0.359885 0.694271 0.623274
vn -0.427799 -0.517599 0.740999
vn -0.303283 -0.795054 0.525270
vn -0.418172 0.548263 0.724251
vn -0.144699 -0.957190 0.250697
vn -0.463093 0.377094 0.802088
vn -0.069801 -0.990207 0.120901
vn -0.490595 0.192798 0.849791
vn -0.035002 -0.997548 0.060603
vn -0.500009 -0.002900 0.866015
vn 0.858184 0.134198 0.495491
vn 0.990953 0.134207 0.000000
vn -0.492306 -0.174702 0.852710
vn -0.495491 0.134198 -0.858184
vn -0.858184 0.134198 -0.495491
vn -0.474301 -0.316501 0.821502
vn -0.259007 0.855425 0.448513
vn -0.849791 0.192798 0.490595
vn -0.866015 -0.002900 0.500009
vn -0.858184 0.134198 0.495491
vn -0.495491 0.134198 0.858184
vn -0.060603 -0.997548 0.035002
vn -0.852710 -0.174702 0.492306
vn 0.000000 0.134207 0.990953
vn 0.495491 0.134198 0.858184
vn -0.821502 -0.316501 0.474301
vn -0.448513 0.855425 0.259007
vn -0.513101 0.805601 0.296200
vn -0.740999 -0.517599 0.427799
vn -0.623274 0.694271 0.359885
vn -0.525270 -0.795054 0.303283
vn -0.724251 0.548263 0.418172
vn -0.250697 -0.957190 0.144699
vn -0.802088 0.377094 0.463093
vn -0.120901 -0.990207 0.069801
vn -0.855617 -0.517610 0.000000
vn -0.606492 -0.795090 0.000000
vn -0.719693 0.694293 0.000000
vn -0.836287 0.548292 0.000000
vn -0.289402 -0.957208 0.000000
vn -0.926176 0.377090 0.000000
vn -0.139601 -0.990208 0.000000
vn -0.981237 0.192807 0.000000
vn -0.070003 -0.997547 0.000000
vn -0.999996 -0.002900 0.000000
vn 0.858184 0.134198 -0.495491
vn -0.984621 -0.174704 0.000000
vn 0.000000 0.134207 -0.990953
vn -0.948593 -0.316498 0.000000
vn -0.517918 0.855430 0.000000
vn -0.592421 0.805628 0.000000
vn -0.060603 -0.997548 -0.035002
vn -0.866015 -0.002900 -0.500009
vn -0.852710 -0.174702 -0.492306
vn -0.821502 -0.316501 -0.474301
vn -0.448513 0.855425 -0.259007
vn -0.513101 0.805601 -0.296200
vn -0.740999 -0.517599 -0.427799
vn -0.623274 0.694271 -0.359885
vn -0.525270 -0.795054 -0.303283
vn -0.724251 0.548263 -0.418172
vn -0.250697 -0.957190 -0.144699
vn -0.802088 0.377094 -0.463093
vn -0.120901 -0.990207 -0.069801
vn -0.849791 0.192798 -0.490595
vn -0.990953 0.134207 0.000000
vn -0.303283 -0.795054 -0.525270
vn -0.144699 -0.957190 -0.250697
vn -0.418172 0.548263 -0.724251
vn -0.463093 0.377094 -0.802088
vn -0.069801 -0.990207 -0.120901
vn -0.490595 0.192798 -0.849791
vn -0.035002 -0.997548 -0.060603
vn -0.500009 -0.002900 -0.866015
vn -0.492306 -0.174702 -0.852710
vn 0.495491 0.134198 -0.858184
vn -0.474301 -0.316501 -0.821502
vn -0.259007 0.855425 -0.448513
vn -0.296200 0.805601 -0.513101
vn -0.427799 -0.517599 -0.740999
vn -0.359885 0.694271 -0.623274
vn 0.000000 -0.698910 0.715210
vn 0.357601 -0.698902 0.619401
vn 0.500001 0.006200 0.866002
vn 0.000000 0.006200 0.999981
vn 0.000000 -0.698910 -0.715210
vn -0.357601 -0.698902 -0.619401
vn -0.500001 0.006200 -0.866002
vn 0.000000 0.006200 -0.999981
vn 0.619401 -0.698902 -0.357601
vn 0.357601 -0.698902 -0.619401
vn 0.500001 0.006200 -0.866002
vn 0.866002 0.006200 -0.500001
vn -0.619401 -0.698902 -0.357601
vn -0.866002 0.006200 -0.500001
vn -0.715210 -0.698910 0.000000
vn -0.619401 -0.698902 0.357601
vn -0.866002 0.006200 0.500001
vn -0.999981 0.006200 0.000000
vn -0.357601 -0.698902 0.619401
vn -0.500001 0.006200 0.866002
vn 0.715210 -0.698910 0.000000
vn 0.999981 0.006200 0.000000
vn 0.619401 -0.698902 0.357601
vn 0.866002 0.006200 0.500001
vn -0.375194 0.901285 0.216597
vn -0.433199 0.901298 0.000000
vn 0.216597 0.901285 -0.375194
vn 0.375194 0.901285 -0.216597
vn -0.216597 0.901285 -0.375194
vn 0.000000 0.901298 -0.433199
vn 0.375194 0.901285 0.216597
vn 0.216597 0.901285 0.375194
vn -0.216597 0.901285 0.375194
vn -0.375194 0.901285 -0.216597
vn 0.433199 0.901298 0.000000
vn 0.000000 0.901298 0.433199
vn 0.000000 1.000000 0.000000
vn 0.000000 -0.716099 -0.697999
vn 0.000000 0.303691 -0.952771
vn 0.444514 0.306710 -0.841627
vn 0.321690 -0.715378 -0.620281
vn 0.803738 0.312315 -0.506424
vn 0.589481 -0.713677 -0.378388
vn 0.949162 0.314787 0.000000
vn 0.701485 -0.712685 0.000000
vn 0.803773 0.312290 0.506383
vn 0.589481 -0.713677 0.378388
vn 0.444514 0.306710 0.841627
vn 0.321690 -0.715378 0.620281
vn 0.000000 0.303691 0.952771
vn 0.000000 -0.716099 0.697999
vn -0.444514 0.306710 0.841627
vn -0.321690 -0.715378 0.620281
vn -0.803773 0.312290 0.506383
vn -0.589481 -0.713677 0.378388
vn -0.949162 0.314787 0.000000
vn -0.701485 -0.712685 0.000000
vn -0.803738 0.312315 -0.506424
vn -0.589481 -0.713677 -0.378388
vn -0.444514 0.306710 -0.841627
vn -0.321690 -0.715378 -0.620281
vn 0.333684 0.916657 0.219990
vn 0.184500 0.912502 0.365101
vn 0.394414 0.918933 0.000000
vn -0.184500 0.912502 -0.365101
vn 0.000000 0.910633 -0.413215
vn 0.184500 0.912502 -0.365101
vn 0.333684 0.916657 -0.219990
vn -0.333684 0.916657 -0.219990
vn -0.394414 0.918933 0.000000
vn -0.333684 0.916657 0.219990
vn -0.184500 0.912502 0.365101
vn 0.000000 0.910633 0.413215

# Mesh
g Sphere.010_Sphere.022-0
usemtl Material.053
f 1/1/1 2/2/2 3/3/3
f 1/1/1 3/3/3 4/4/4
f 5/5/5 6/6/6 7/7/7
f 5/5/5 7/7/7 8/8/8
f 9/9/9 1/1/1 4/4/4
f 10/10/10 5/5/5 8/8/8
f 10/10/10 8/8/8 11/11/11
f 12/12/12 10/10/10 11/11/11
f 12/12/12 11/11/11 13/13/13
f 14/14/14 15/15/15 16/16/16
f 14/14/14 16/16/16 17/17/17
f 18/18/18 12/12/12 13/13/13
f 18/18/18 13/13/13 19/19/19
f 20/20/20 14/14/14 17/17/17
f 20/20/20 17/17/17 21/21/21
f 22/22/22 18/18/18 19/19/19
f 22/22/22 19/19/19 23/23/23
f 24/24/24 20/20/20 21/21/21
f 24/24/24 21/21/21 25/25/25
f 26/26/26 22/22/22 23/23/23
f 26/26/26 23/23/23 27/27/27
f 28/28/28 24/24/24 25/25/25
f 28/28/28 25/25/25 29/29/29
f 2/30/2 26/26/26 27/27/27
f 2/30/2 27/27/27 3/31/3
f 6/6/6 28/28/28 29/29/29
f 6/6/6 29/29/29 7/7/7
f 3/31/3 27/27/27 30/32/30
f 3/31/3 30/32/30 31/33/31
f 7/7/7 29/29/29 32/34/32
f 7/7/7 32/34/32 33/35/33
f 4/4/4 3/3/3 31/36/31
f 4/4/4 31/36/31 34/37/34
f 8/8/8 7/7/7 33/35/33
f 8/8/8 33/35/33 35/38/35
f 9/9/9 4/4/4 34/37/34
f 11/11/11 8/8/8 35/38/35
f 11/11/11 35/38/35 36/39/36
f 13/13/13 11/11/11 36/39/36
f 13/13/13 36/39/36 37/40/37
f 17/17/17 16/16/16 38/41/38
f 17/17/17 38/41/38 39/42/39
f 19/19/19 13/13/13 37/40/37
f 19/19/19 37/40/37 40/43/40
f 21/21/21 17/17/17 39/42/39
f 21/21/21 39/42/39 41/44/41
f 23/23/23 19/19/19 40/43/40
f 23/23/23 40/43/40 42/45/42
f 25/25/25 21/21/21 41/44/41
f 25/25/25 41/44/41 43/46/43
f 27/27/27 23/23/23 42/45/42
f 27/27/27 42/45/42 30/32/30
f 29/29/29 25/25/25 43/46/43
f 29/29/29 43/46/43 32/34/32
f 39/42/39 38/41/38 44/47/44
f 39/42/39 44/47/44 45/48/45
f 40/43/40 37/40/37 46/49/46
f 40/43/40 46/49/46 47/50/47
f 41/44/41 39/42/39 45/48/45
f 41/44/41 45/48/45 48/51/48
f 42/45/42 40/43/40 47/50/47
f 42/45/42 47/50/47 49/52/49
f 43/46/43 41/44/41 48/51/48
f 43/46/43 48/51/48 50/53/50
f 30/32/30 42/45/42 49/52/49
f 30/32/30 49/52/49 51/54/51
f 32/34/32 43/46/43 50/53/50
f 32/34/32 50/53/50 52/55/52
f 31/33/31 30/32/30 51/54/51
f 31/33/31 51/54/51 53/56/53
f 33/35/33 32/34/32 52/55/52
f 33/35/33 52/55/52 54/57/54
f 34/37/34 31/36/31 53/58/53
f 34/37/34 53/58/53 55/59/55
f 35/38/35 33/35/33 54/57/54
f 35/38/35 54/57/54 56/60/56
f 9/9/9 34/37/34 55/59/55
f 36/39/36 35/38/35 56/60/56
f 36/39/36 56/60/56 57/61/57
f 37/40/37 36/39/36 57/61/57
f 37/40/37 57/61/57 46/49/46
f 54/57/54 52/55/52 58/62/58
f 54/57/54 58/62/58 59/63/59
f 55/59/55 53/58/53 60/64/60
f 55/59/55 60/64/60 61/65/61
f 56/60/56 54/57/54 59/63/59
f 56/60/56 59/63/59 62/66/62
f 9/9/9 55/59/55 61/65/61
f 57/61/57 56/60/56 62/66/62
f 57/61/57 62/66/62 63/67/63
f 46/49/46 57/61/57 63/67/63
f 46/49/46 63/67/63 64/68/64
f 45/48/45 44/47/44 65/69/65
f 45/48/45 65/69/65 66/70/66
f 47/50/47 46/49/46 64/68/64
f 47/50/47 64/68/64 67/71/67
f 48/51/48 45/48/45 66/70/66
f 48/51/48 66/70/66 68/72/68
f 49/52/49 47/50/47 67/71/67
f 49/52/49 67/71/67 69/73/69
f 50/53/50 48/51/48 68/72/68
f 50/53/50 68/72/68 70/74/70
f 51/54/51 49/52/49 69/73/69
f 51/54/51 69/73/69 71/75/71
f 52/55/52 50/53/50 70/74/70
f 52/55/52 70/74/70 58/62/58
f 53/56/53 51/54/51 71/75/71
f 53/56/53 71/75/71 60/76/60
f 67/71/67 64/68/64 72/77/72
f 67/71/67 72/77/72 73/78/73
f 68/72/68 66/70/66 74/79/74
f 68/72/68 74/79/74 75/80/75
f 69/73/69 67/71/67 73/78/73
f 69/73/69 73/78/73 76/81/76
f 70/74/70 68/72/68 75/80/75
f 70/74/70 75/80/75 77/82/77
f 71/75/71 69/73/69 76/81/76
f 71/75/71 76/81/76 78/83/78
f 58/62/58 70/74/70 77/82/77
f 58/62/58 77/82/77 79/84/79
f 60/76/60 71/75/71 78/83/78
f 60/76/60 78/83/78 80/85/80
f 59/63/59 58/62/58 79/84/79
f 59/63/59 79/84/79 81/86/81
f 61/65/61 60/64/60 80/87/80
f 61/65/61 80/87/80 82/88/82
f 62/66/62 59/63/59 81/86/81
f 62/66/62 81/86/81 83/89/83
f 9/9/9 61/65/61 82/88/82
f 63/67/63 62/66/62 83/89/83
f 63/67/63 83/89/83 84/90/84
f 64/68/64 63/67/63 84/90/84
f 64/68/64 84/90/84 72/77/72
f 66/70/66 65/69/65 85/91/85
f 66/70/66 85/91/85 74/79/74
f 82/88/82 80/87/80 86/92/86
f 82/88/82 86/92/86 87/93/87
f 83/94/83 81/95/81 88/96/88
f 83/94/83 88/96/88 89/97/89
f 9/9/9 82/88/82 87/93/87
f 84/98/84 83/94/83 89/97/89
f 84/98/84 89/97/89 90/99/90
f 72/100/72 84/98/84 90/99/90
f 72/100/72 90/99/90 91/101/91
f 74/102/74 85/103/85 92/104/92
f 74/102/74 92/104/92 93/105/93
f 73/106/73 72/100/72 91/101/91
f 73/106/73 91/101/91 94/107/94
f 75/108/75 74/102/74 93/105/93
f 75/108/75 93/105/93 95/109/95
f 76/110/76 73/106/73 94/107/94
f 76/110/76 94/107/94 96/111/96
f 77/112/77 75/108/75 95/109/95
f 77/112/77 95/109/95 97/113/97
f 78/114/78 76/110/76 96/111/96
f 78/114/78 96/111/96 98/115/98
f 79/116/79 77/112/77 97/113/97
f 79/116/79 97/113/97 99/117/99
f 80/118/80 78/114/78 98/115/98
f 80/118/80 98/115/98 86/119/86
f 81/95/81 79/116/79 99/117/99
f 81/95/81 99/117/99 88/96/88
f 95/109/95 93/105/93 100/120/100
f 95/109/95 100/120/100 101/121/101
f 96/111/96 94/107/94 102/122/102
f 96/111/96 102/122/102 103/123/103
f 97/113/97 95/109/95 101/121/101
f 97/113/97 101/121/101 104/124/104
f 98/115/98 96/111/96 103/123/103
f 98/115/98 103/123/103 105/125/105
f 99/117/99 97/113/97 104/124/104
f 99/117/99 104/124/104 106/126/106
f 86/119/86 98/115/98 105/125/105
f 86/119/86 105/125/105 107/127/107
f 88/96/88 99/117/99 106/126/106
f 88/96/88 106/126/106 108/128/108
f 87/93/87 86/92/86 107/129/107
f 87/93/87 107/129/107 109/130/109
f 89/97/89 88/96/88 108/128/108
f 89/97/89 108/128/108 110/131/110
f 65/132/111 44/133/112 111/134/112
f 65/132/111 111/134/112 112/135/111
f 9/9/9 87/93/87 109/130/109
f 90/99/90 89/97/89 110/131/110
f 90/99/90 110/131/110 113/136/113
f 114/137/114 115/138/115 116/139/115
f 114/137/114 116/139/115 117/140/114
f 91/101/91 90/99/90 113/136/113
f 91/101/91 113/136/113 118/141/116
f 93/105/93 92/104/92 119/142/117
f 93/105/93 119/142/117 100/120/100
f 94/107/94 91/101/91 118/141/116
f 94/107/94 118/141/116 102/122/102
f 110/131/110 108/128/108 120/143/118
f 110/131/110 120/143/118 121/144/119
f 122/145/120 119/146/121 123/147/121
f 122/145/120 123/147/121 124/148/120
f 9/9/9 109/130/109 125/149/122
f 113/136/113 110/131/110 121/144/119
f 113/136/113 121/144/119 126/150/123
f 92/151/124 85/152/125 127/153/125
f 92/151/124 127/153/125 128/154/124
f 118/141/116 113/136/113 126/150/123
f 118/141/116 126/150/123 129/155/126
f 100/120/100 119/142/117 122/156/127
f 100/120/100 122/156/127 130/157/128
f 102/122/102 118/141/116 129/155/126
f 102/122/102 129/155/126 131/158/129
f 101/121/101 100/120/100 130/157/128
f 101/121/101 130/157/128 132/159/130
f 103/123/103 102/122/102 131/158/129
f 103/123/103 131/158/129 133/160/131
f 104/124/104 101/121/101 132/159/130
f 104/124/104 132/159/130 134/161/132
f 105/125/105 103/123/103 133/160/131
f 105/125/105 133/160/131 135/162/133
f 106/126/106 104/124/104 134/161/132
f 106/126/106 134/161/132 136/163/134
f 107/127/107 105/125/105 135/162/133
f 107/127/107 135/162/133 137/164/135
f 108/128/108 106/126/106 136/163/134
f 108/128/108 136/163/134 120/143/118
f 109/130/109 107/129/107 137/165/135
f 109/130/109 137/165/135 125/149/122
f 133/160/131 131/158/129 138/166/136
f 133/160/131 138/166/136 139/167/137
f 134/161/132 132/159/130 140/168/138
f 134/161/132 140/168/138 141/169/139
f 135/162/133 133/160/131 139/167/137
f 135/162/133 139/167/137 142/170/140
f 136/163/134 134/161/132 141/169/139
f 136/163/134 141/169/139 143/171/141
f 137/164/135 135/162/133 142/170/140
f 137/164/135 142/170/140 144/172/142
f 120/143/118 136/163/134 143/171/141
f 120/143/118 143/171/141 145/173/143
f 125/149/122 137/165/135 144/174/142
f 125/149/122 144/174/142 146/175/144
f 121/144/119 120/143/118 145/173/143
f 121/144/119 145/173/143 147/176/145
f 44/133/112 38/177/146 148/178/146
f 44/133/112 148/178/146 111/134/112
f 9/9/9 125/149/122 146/175/144
f 126/150/123 121/144/119 147/176/145
f 126/150/123 147/176/145 149/179/147
f 15/180/148 114/137/114 117/140/114
f 15/180/148 117/140/114 150/181/148
f 129/155/126 126/150/123 149/179/147
f 129/155/126 149/179/147 151/182/149
f 130/157/128 122/156/127 152/183/150
f 130/157/128 152/183/150 153/184/151
f 131/158/129 129/155/126 151/182/149
f 131/158/129 151/182/149 138/166/136
f 132/159/130 130/157/128 153/184/151
f 132/159/130 153/184/151 140/168/138
f 9/9/9 146/175/144 154/185/152
f 149/179/147 147/176/145 155/186/153
f 149/179/147 155/186/153 156/187/154
f 85/188/125 65/132/111 112/135/111
f 85/188/125 112/135/111 127/189/125
f 151/182/149 149/179/147 156/187/154
f 151/182/149 156/187/154 157/190/155
f 153/184/151 152/183/150 115/191/156
f 153/184/151 115/191/156 158/192/157
f 138/166/136 151/182/149 157/190/155
f 138/166/136 157/190/155 159/193/158
f 140/168/138 153/184/151 158/192/157
f 140/168/138 158/192/157 160/194/159
f 139/167/137 138/166/136 159/193/158
f 139/167/137 159/193/158 161/195/160
f 141/169/139 140/168/138 160/194/159
f 141/169/139 160/194/159 162/196/161
f 142/170/140 139/167/137 161/195/160
f 142/170/140 161/195/160 163/197/162
f 143/171/141 141/169/139 162/196/161
f 143/171/141 162/196/161 164/198/163
f 144/172/142 142/170/140 163/197/162
f 144/172/142 163/197/162 165/199/164
f 145/173/143 143/171/141 164/198/163
f 145/173/143 164/198/163 166/200/165
f 146/175/144 144/174/142 165/201/164
f 146/175/144 165/201/164 154/185/152
f 147/176/145 145/173/143 166/200/165
f 147/176/145 166/200/165 155/186/153
f 152/202/166 122/145/120 124/148/120
f 152/202/166 124/148/120 167/203/166
f 163/197/162 161/195/160 168/204/167
f 163/197/162 168/204/167 169/205/168
f 164/198/163 162/196/161 170/206/169
f 164/198/163 170/206/169 171/207/170
f 165/199/164 163/197/162 169/205/168
f 165/199/164 169/205/168 172/208/171
f 166/200/165 164/198/163 171/207/170
f 166/200/165 171/207/170 173/209/172
f 154/185/152 165/201/164 172/210/171
f 154/185/152 172/210/171 174/211/173
f 155/186/153 166/200/165 173/209/172
f 155/186/153 173/209/172 175/212/174
f 119/146/121 92/151/124 128/154/124
f 119/146/121 128/154/124 123/147/121
f 9/9/9 154/185/152 174/211/173
f 156/187/154 155/186/153 175/212/174
f 156/187/154 175/212/174 176/213/175
f 16/214/176 15/180/148 150/181/148
f 16/214/176 150/181/148 177/215/176
f 157/190/155 156/187/154 176/213/175
f 157/190/155 176/213/175 178/216/177
f 158/192/157 115/191/156 114/217/178
f 158/192/157 114/217/178 179/218/179
f 159/193/158 157/190/155 178/216/177
f 159/193/158 178/216/177 180/219/180
f 160/194/159 158/192/157 179/218/179
f 160/194/159 179/218/179 181/220/181
f 161/195/160 159/193/158 180/219/180
f 161/195/160 180/219/180 168/204/167
f 162/196/161 160/194/159 181/220/181
f 162/196/161 181/220/181 170/206/169
f 115/138/115 152/202/166 167/203/166
f 115/138/115 167/203/166 116/139/115
f 178/216/177 176/213/175 10/10/10
f 178/216/177 10/10/10 12/12/12
f 179/218/179 114/217/178 15/15/15
f 179/218/179 15/15/15 14/14/14
f 180/219/180 178/216/177 12/12/12
f 180/219/180 12/12/12 18/18/18
f 181/220/181 179/218/179 14/14/14
f 181/220/181 14/14/14 20/20/20
f 168/204/167 180/219/180 18/18/18
f 168/204/167 18/18/18 22/22/22
f 170/206/169 181/220/181 20/20/20
f 170/206/169 20/20/20 24/24/24
f 169/205/168 168/204/167 22/22/22
f 169/205/168 22/22/22 26/26/26
f 171/207/170 170/206/169 24/24/24
f 171/207/170 24/24/24 28/28/28
f 172/208/171 169/205/168 26/26/26
f 172/208/171 26/26/26 2/30/2
f 173/209/172 171/207/170 28/28/28
f 173/209/172 28/28/28 6/6/6
f 174/211/173 172/210/171 2/2/2
f 174/211/173 2/2/2 1/1/1
f 175/212/174 173/209/172 6/6/6
f 175/212/174 6/6/6 5/5/5
f 38/177/146 16/214/176 177/215/176
f 38/177/146 177/215/176 148/178/146
f 9/9/9 174/211/173 1/1/1
f 176/213/175 175/212/174 5/5/5
f 176/213/175 5/5/5 10/10/10
f 128/221/182 127/222/183 182/223/184
f 128/221/182 182/223/184 183/224/185
f 150/225/186 117/226/187 184/227/188
f 150/225/186 184/227/188 185/228/189
f 148/229/190 177/230/191 186/231/192
f 148/229/190 186/231/192 187/232/193
f 117/226/187 116/233/194 188/234/195
f 117/226/187 188/234/195 184/227/188
f 177/230/191 150/225/186 185/228/189
f 177/230/191 185/228/189 186/231/192
f 167/235/196 124/236/197 189/237/198
f 167/235/196 189/237/198 190/238/199
f 123/239/200 128/221/182 183/224/185
f 123/239/200 183/224/185 191/240/201
f 111/241/202 148/229/190 187/232/193
f 111/241/202 187/232/193 192/242/203
f 127/243/183 112/244/204 193/245/205
f 127/243/183 193/245/205 182/246/184
f 116/233/194 167/235/196 190/238/199
f 116/233/194 190/238/199 188/234/195
f 124/236/197 123/239/200 191/240/201
f 124/236/197 191/240/201 189/237/198
f 112/244/204 111/241/202 192/242/203
f 112/244/204 192/242/203 193/245/205
f 190/238/199 189/237/198 194/247/206
f 190/238/199 194/247/206 195/248/207
f 187/232/193 186/231/192 196/249/208
f 187/232/193 196/249/208 197/250/209
f 185/228/189 184/227/188 198/251/210
f 185/228/189 198/251/210 199/252/211
f 182/246/184 193/245/205 200/253/212
f 182/246/184 200/253/212 201/254/213
f 189/237/198 191/240/201 202/255/214
f 189/237/198 202/255/214 194/247/206
f 184/227/188 188/234/195 203/256/215
f 184/227/188 203/256/215 198/251/210
f 193/245/205 192/242/203 204/257/216
f 193/245/205 204/257/216 200/253/212
f 191/240/201 183/224/185 205/258/217
f 191/240/201 205/258/217 202/255/214
f 188/234/195 190/238/199 195/248/207
f 188/234/195 195/248/207 203/256/215
f 192/242/203 187/232/193 197/250/209
f 192/242/203 197/250/209 204/257/216
f 186/231/192 185/228/189 199/252/211
f 186/231/192 199/252/211 196/249/208
f 183/224/185 182/223/184 201/259/213
f 183/224/185 201/259/213 205/258/217
f 202/260/214 205/261/217 206/262/218
f 202/260/214 206/262/218 194/263/206
f 205/261/217 201/264/213 207/265/218
f 205/261/217 207/265/218 206/262/218
f 201/264/213 200/266/212 204/267/216
f 201/264/213 204/267/216 207/265/218
f 194/263/206 206/262/218 208/268/218
f 194/263/206 208/268/218 195/269/207
f 206/262/218 207/265/218 209/270/218
f 206/262/218 209/270/218 208/268/218
f 207/265/218 204/267/216 197/271/209
f 207/265/218 197/271/209 209/270/218
f 195/269/207 208/268/218 198/272/210
f 195/269/207 198/272/210 203/273/215
f 208/268/218 209/270/218 199/274/211
f 208/268/218 199/274/211 198/272/210
f 209/270/218 197/271/209 196/275/208
f 209/270/218 196/275/208 199/274/211

# Mesh
g Sphere.010_Sphere.022-1
usemtl Material.054
f 210/276/219 211/277/220 212/278/221
f 210/276/219 212/278/221 213/279/222
f 213/279/222 212/278/221 214/280/223
f 213/279/222 214/280/223 215/281/224
f 215/281/224 214/280/223 216/282/225
f 215/281/224 216/282/225 217/283/226
f 217/283/226 216/282/225 218/284/227
f 217/283/226 218/284/227 219/285/228
f 219/285/228 218/284/227 220/286/229
f 219/285/228 220/286/229 221/287/230
f 221/287/230 220/286/229 222/288/231
f 221/287/230 222/288/231 223/289/232
f 223/289/232 222/288/231 224/290/233
f 223/289/232 224/290/233 225/291/234
f 225/291/234 224/290/233 226/292/235
f 225/291/234 226/292/235 227/293/236
f 227/293/236 226/292/235 228/294/237
f 227/293/236 228/294/237 229/295/238
f 229/295/238 228/294/237 230/296/239
f 229/295/238 230/296/239 231/297/240
f 231/297/240 230/296/239 232/298/241
f 231/297/240 232/298/241 233/299/242
f 233/299/242 232/298/241 211/300/220
f 233/299/242 211/300/220 210/301/219
f 233/302/242 210/303/219 213/304/222
f 213/304/222 215/305/224 217/306/226
f 217/306/226 219/307/228 221/308/230
f 221/308/230 223/309/232 225/310/234
f 225/310/234 227/311/236 229/312/238
f 229/312/238 231/313/240 233/302/242
f 233/302/242 213/304/222 217/306/226
f 217/306/226 221/308/230 225/310/234
f 225/310/234 229/312/238 233/302/242
f 217/306/226 225/310/234 233/302/242
f 220/286/229 218/284/227 234/314/243
f 220/286/229 234/314/243 235/315/244
f 218/284/227 216/282/225 236/316/245
f 218/284/227 236/316/245 234/314/243
f 211/300/220 232/298/241 237/317/246
f 211/300/220 237/317/246 238/318/247
f 212/278/221 211/277/220 238/319/247
f 212/278/221 238/319/247 239/320/248
f 216/282/225 214/280/223 240/321/249
f 216/282/225 240/321/249 236/316/245
f 232/298/241 230/296/239 241/322/250
f 232/298/241 241/322/250 237/317/246
f 214/280/223 212/278/221 239/320/248
f 214/280/223 239/320/248 240/321/249
f 230/296/239 228/294/237 242/323/251
f 230/296/239 242/323/251 241/322/250
f 228/294/237 226/292/235 243/324/252
f 228/294/237 243/324/252 242/323/251
f 226/292/235 224/290/233 244/325/253
f 226/292/235 244/325/253 243/324/252
f 224/290/233 222/288/231 245/326/254
f 224/290/233 245/326/254 244/325/253
f 222/288/231 220/286/229 235/315/244
f 222/288/231 235/315/244 245/326/254
f 241/327/250 242/328/251 246/329/218
f 241/327/250 246/329/218 237/330/246
f 242/328/251 243/331/252 247/332/218
f 242/328/251 247/332/218 246/329/218
f 243/331/252 244/333/253 245/334/254
f 243/331/252 245/334/254 247/332/218
f 237/330/246 246/329/218 248/335/218
f 237/330/246 248/335/218 238/336/247
f 246/329/218 247/332/218 249/337/218
f 246/329/218 249/337/218 248/335/218
f 247/332/218 245/334/254 235/338/244
f 247/332/218 235/338/244 249/337/218
f 238/336/247 248/335/218 240/339/249
f 238/336/247 240/339/249 239/340/248
f 248/335/218 249/337/218 236/341/245
f 248/335/218 236/341/245 240/339/249
f 249/337/218 235/338/244 234/342/243
f 249/337/218 234/342/243 236/341/245
