# File produced by Open Asset Import Library (http://www.assimp.sf.net)
# (assimp v3.1.118612264)

mtllib bottle1.mtl

# vertex positions
v 0.849305 0.240735 0.521690
v 0.849305 0.265910 0.517640
v 0.861561 0.265910 0.520564
v 0.859287 0.240735 0.524072
v 0.870533 0.265910 0.528554
v 0.866594 0.240735 0.530579
v 0.873817 0.265910 0.539468
v 0.869269 0.240735 0.539468
v 0.870533 0.265910 0.550382
v 0.866594 0.240735 0.548357
v 0.861561 0.265910 0.558372
v 0.859287 0.240735 0.554865
v 0.849305 0.265910 0.561297
v 0.849305 0.240735 0.557247
v 0.837050 0.265910 0.558372
v 0.839324 0.240735 0.554865
v 0.828078 0.265910 0.550382
v 0.832016 0.240735 0.548357
v 0.824794 0.265910 0.539468
v 0.829342 0.240735 0.539468
v 0.828078 0.265910 0.528554
v 0.832016 0.240735 0.530579
v 0.837050 0.265910 0.520564
v 0.839324 0.240735 0.524072
v 0.867878 0.268470 0.549017
v 0.860028 0.268470 0.556007
v 0.870751 0.268470 0.539468
v 0.838583 0.268470 0.522929
v 0.849305 0.268470 0.520370
v 0.860028 0.268470 0.522929
v 0.867878 0.268470 0.529919
v 0.830733 0.268470 0.529919
v 0.827860 0.268470 0.539468
v 0.830733 0.268470 0.549017
v 0.838583 0.268470 0.556007
v 0.849305 0.268470 0.558566
v 0.839891 0.268470 0.534267
v 0.844072 0.268470 0.548164
v 0.854538 0.268470 0.530772
v 0.858720 0.268470 0.544669
v 0.849305 0.099976 0.509718
v 0.849305 0.191414 0.503842
v 0.869570 0.191414 0.508677
v 0.866270 0.099976 0.513766
v 0.884404 0.191414 0.521888
v 0.878689 0.099976 0.524826
v 0.889834 0.191414 0.539934
v 0.883235 0.099976 0.539934
v 0.884404 0.191414 0.557980
v 0.878689 0.099976 0.555041
v 0.869570 0.191414 0.571190
v 0.866270 0.099976 0.566101
v 0.849305 0.191414 0.576025
v 0.849305 0.099976 0.570149
v 0.829041 0.191414 0.571190
v 0.832341 0.099976 0.566101
v 0.814207 0.191414 0.557980
v 0.819921 0.099976 0.555041
v 0.808777 0.191414 0.539934
v 0.815376 0.099976 0.539934
v 0.814207 0.191414 0.521888
v 0.819921 0.099976 0.524826
v 0.849305 0.212282 0.560115
v 0.837974 0.212282 0.557411
v 0.829041 0.191414 0.508677
v 0.832341 0.099976 0.513766
v 0.868931 0.212282 0.529843
v 0.860636 0.212282 0.522456
v 0.860636 0.231838 0.522456
v 0.868931 0.231838 0.529843
v 0.860636 0.212282 0.557411
v 0.868931 0.212282 0.550024
v 0.871967 0.212282 0.539934
v 0.837974 0.212282 0.522456
v 0.849305 0.212282 0.519752
v 0.829680 0.212282 0.529843
v 0.826643 0.212282 0.539934
v 0.829680 0.212282 0.550024
v 0.849305 0.231838 0.519752
v 0.837974 0.231838 0.522456
v 0.834293 0.240161 0.516778
v 0.849305 0.240161 0.513196
v 0.829680 0.231838 0.550024
v 0.826643 0.231838 0.539934
v 0.860636 0.231838 0.557411
v 0.849305 0.231838 0.560115
v 0.871967 0.231838 0.539934
v 0.829680 0.231838 0.529843
v 0.837974 0.231838 0.557411
v 0.868931 0.231838 0.550024
v 0.864318 0.240161 0.563089
v 0.875307 0.240161 0.553302
v 0.870100 0.248891 0.550625
v 0.861311 0.248891 0.558452
v 0.864318 0.240161 0.516778
v 0.875307 0.240161 0.526565
v 0.823304 0.240161 0.553302
v 0.819281 0.240161 0.539934
v 0.849305 0.240161 0.566671
v 0.879330 0.240161 0.539934
v 0.823304 0.240161 0.526565
v 0.834293 0.240161 0.563089
v 0.870100 0.248891 0.529242
v 0.861311 0.248891 0.521415
v 0.860239 0.248892 0.534716
v 0.873317 0.248891 0.539934
v 0.837300 0.248891 0.521415
v 0.849305 0.248891 0.518551
v 0.828511 0.248891 0.550625
v 0.825294 0.248891 0.539934
v 0.849305 0.248891 0.561316
v 0.828511 0.248891 0.529242
v 0.837300 0.248891 0.558452
v 0.842767 0.248892 0.530546
v 0.855844 0.248891 0.549321
v 0.838372 0.248891 0.545151

# UV coordinates
vt 0.166722 0.917403
vt 0.057896 0.919872
vt 0.057307 0.846398
vt 0.166634 0.845381
vt 0.055514 0.774464
vt 0.167095 0.771929
vt 0.052380 0.699404
vt 0.167569 0.695952
vt 0.048652 0.621388
vt 0.167939 0.617208
vt 0.044614 0.540297
vt 0.168156 0.535579
vt 0.040591 0.455694
vt 0.168200 0.451055
vt 0.037549 0.366180
vt 0.168074 0.363926
vt 0.035608 0.275098
vt 0.167854 0.275534
vt 0.034135 0.185851
vt 0.167703 0.186882
vt 0.030633 0.097206
vt 0.167779 0.097720
vt 0.021766 0.000088
vt 0.168580 0.006949
vt 0.168580 0.989784
vt 0.051593 0.999912
vt 0.168756 0.398617
vt 0.193852 0.334435
vt 0.237319 0.297379
vt 0.287511 0.297379
vt 0.330978 0.334435
vt 0.356074 0.398617
vt 0.356074 0.472728
vt 0.330978 0.536910
vt 0.287511 0.573966
vt 0.237319 0.573966
vt 0.193852 0.536910
vt 0.168756 0.472728
vt 0.030150 0.623462
vt 0.025313 0.542489
vt 0.034615 0.701260
vt 0.034501 0.991586
vt 0.040423 0.918250
vt 0.041478 0.846865
vt 0.038547 0.775912
vt 0.010919 0.100419
vt 0.000088 0.012029
vt 0.013682 0.186949
vt 0.014574 0.275757
vt 0.015187 0.367554
vt 0.020223 0.457806
vt 0.195715 0.257397
vt 0.168756 0.188451
vt 0.232541 0.206577
vt 0.242408 0.297203
vt 0.168756 0.108840
vt 0.232541 0.090715
vt 0.195715 0.039894
vt 0.242408 0.000088
vt 0.306192 0.206577
vt 0.296325 0.297203
vt 0.306192 0.090715
vt 0.296325 0.000088
vt 0.369977 0.188451
vt 0.343018 0.257397
vt 0.369977 0.108840
vt 0.343018 0.039894
vt 1.000000 0.500000
vt 1.000000 1.000000
vt 0.916667 1.000000
vt 0.916667 0.500000
vt 0.833333 1.000000
vt 0.833333 0.500000
vt 0.750000 1.000000
vt 0.750000 0.500000
vt 0.666667 1.000000
vt 0.666667 0.500000
vt 0.583333 1.000000
vt 0.583333 0.500000
vt 0.500000 1.000000
vt 0.500000 0.500000
vt 0.416667 1.000000
vt 0.416667 0.500000
vt 0.333333 1.000000
vt 0.333333 0.500000
vt 0.250000 1.000000
vt 0.250000 0.500000
vt 0.166667 1.000000
vt 0.166667 0.500000
vt 0.083333 1.000000
vt 0.083333 0.500000
vt 0.000000 1.000000
vt 0.000000 0.500000
vt 0.630000 0.457846
vt 0.750000 0.490000
vt 0.870000 0.457846
vt 0.957846 0.370000
vt 0.990000 0.250000
vt 0.957846 0.130000
vt 0.870000 0.042154
vt 0.750000 0.010000
vt 0.630000 0.042154
vt 0.542154 0.130000
vt 0.510000 0.250000
vt 0.542154 0.370000
vt 0.250000 1.000000
vt 0.583333 1.000000
vt 0.500000 1.000000
vt 0.333333 1.000000

# vertex normals
vn 0.000000 -0.676480 -0.736461
vn 0.000000 0.285455 -0.958392
vn 0.437273 0.292499 -0.850433
vn 0.332590 -0.686206 -0.646920
vn 0.798210 0.308282 -0.517516
vn 0.593497 -0.706919 -0.384744
vn 0.948363 0.317188 0.000000
vn 0.696072 -0.717972 0.000000
vn 0.798210 0.308282 0.517516
vn 0.593497 -0.706919 0.384744
vn 0.437273 0.292499 0.850433
vn 0.332590 -0.686206 0.646920
vn 0.000000 0.285455 0.958392
vn 0.000000 -0.676480 0.736461
vn -0.437273 0.292499 0.850433
vn -0.332590 -0.686206 0.646920
vn -0.798210 0.308282 0.517516
vn -0.593497 -0.706919 0.384744
vn -0.948363 0.317188 0.000000
vn -0.696072 -0.717972 0.000000
vn -0.798210 0.308282 -0.517516
vn -0.593497 -0.706919 -0.384744
vn -0.437273 0.292499 -0.850433
vn -0.332590 -0.686206 -0.646920
vn 0.335259 0.916713 0.217343
vn 0.191688 0.907880 0.372840
vn 0.389098 0.921196 0.000000
vn -0.191688 0.907880 -0.372840
vn 0.000000 0.903522 -0.428542
vn 0.191688 0.907880 -0.372840
vn 0.335259 0.916713 -0.217343
vn -0.335259 0.916713 -0.217343
vn -0.389098 0.921196 0.000000
vn -0.335259 0.916713 0.217343
vn -0.191688 0.907880 0.372840
vn 0.000000 0.903522 0.428542
vn 0.000000 1.000000 0.000000
vn 0.000000 -0.636591 -0.771201
vn 0.000000 0.265576 -0.964090
vn 0.439993 0.272175 -0.855761
vn 0.348786 -0.646591 -0.678431
vn 0.803773 0.287062 -0.521099
vn 0.624318 -0.668154 -0.404719
vn 0.955339 0.295512 0.000000
vn 0.733399 -0.679799 0.000000
vn 0.803773 0.287062 0.521099
vn 0.624318 -0.668154 0.404719
vn 0.439993 0.272175 0.855761
vn 0.348786 -0.646591 0.678431
vn 0.000000 0.265576 0.964090
vn 0.000000 -0.636591 0.771201
vn -0.439993 0.272175 0.855761
vn -0.348786 -0.646591 0.678431
vn -0.803773 0.287062 0.521099
vn -0.624318 -0.668154 0.404719
vn -0.955339 0.295512 0.000000
vn -0.733399 -0.679799 0.000000
vn -0.803773 0.287062 -0.521099
vn -0.624318 -0.668154 -0.404719
vn 0.000000 0.606350 0.795198
vn -0.359997 0.616488 0.700246
vn -0.439993 0.272175 -0.855761
vn -0.348786 -0.646591 -0.678431
vn 0.839082 0.000000 -0.544006
vn 0.457265 0.000000 -0.889330
vn 0.359997 0.616488 0.700246
vn 0.645826 0.638464 0.418656
vn 0.759595 0.650396 0.000000
vn -0.359997 0.616488 -0.700246
vn 0.000000 0.606350 -0.795198
vn 0.359997 0.616488 -0.700246
vn 0.645826 0.638464 -0.418656
vn -0.645826 0.638464 -0.418656
vn -0.759595 0.650396 0.000000
vn -0.645826 0.638464 0.418656
vn 0.000000 -0.618782 -0.785563
vn -0.355496 -0.628881 -0.691470
vn -0.456646 -0.050495 -0.888214
vn 0.000000 -0.049172 -0.998790
vn -1.000000 0.000000 0.000000
vn -0.839082 0.000000 0.544006
vn 0.000000 0.000000 1.000000
vn 0.457265 0.000000 0.889330
vn 1.000000 0.000000 0.000000
vn -0.839082 0.000000 -0.544006
vn -0.457265 0.000000 0.889330
vn 0.839082 0.000000 0.544006
vn -0.457265 0.000000 -0.889330
vn 0.000000 0.000000 -1.000000
vn 0.456646 -0.050495 0.888214
vn 0.837905 -0.053489 0.543189
vn 0.447665 0.845766 0.290305
vn 0.254137 0.831401 0.494152
vn 0.637156 -0.650710 -0.413048
vn 0.355496 -0.628881 -0.691470
vn 0.456646 -0.050495 -0.888214
vn 0.837905 -0.053489 -0.543189
vn -0.749035 -0.662531 0.000000
vn -0.637156 -0.650710 0.413048
vn -0.837905 -0.053489 0.543189
vn -0.998475 -0.055199 0.000000
vn 0.000000 -0.618782 0.785563
vn 0.355496 -0.628881 0.691470
vn 0.000000 -0.049172 0.998790
vn 0.749035 -0.662531 0.000000
vn 0.998475 -0.055199 0.000000
vn -0.637156 -0.650710 -0.413048
vn -0.837905 -0.053489 -0.543189
vn -0.355496 -0.628881 0.691470
vn -0.456646 -0.050495 0.888214
vn 0.637156 -0.650710 0.413048
vn 0.447665 0.845766 -0.290305
vn 0.254137 0.831401 -0.494152
vn 0.521523 0.853237 0.000000
vn -0.254137 0.831401 -0.494152
vn 0.000000 0.824481 -0.565889
vn -0.447665 0.845766 0.290305
vn -0.521523 0.853237 0.000000
vn 0.000000 0.824481 0.565889
vn -0.447665 0.845766 -0.290305
vn -0.254137 0.831401 0.494152

# Mesh
g Cylinder.009_Cylinder.020-0
usemtl Material.054
f 1/1/1 2/2/2 3/3/3
f 1/1/1 3/3/3 4/4/4
f 4/4/4 3/3/3 5/5/5
f 4/4/4 5/5/5 6/6/6
f 6/6/6 5/5/5 7/7/7
f 6/6/6 7/7/7 8/8/8
f 8/8/8 7/7/7 9/9/9
f 8/8/8 9/9/9 10/10/10
f 10/10/10 9/9/9 11/11/11
f 10/10/10 11/11/11 12/12/12
f 12/12/12 11/11/11 13/13/13
f 12/12/12 13/13/13 14/14/14
f 14/14/14 13/13/13 15/15/15
f 14/14/14 15/15/15 16/16/16
f 16/16/16 15/15/15 17/17/17
f 16/16/16 17/17/17 18/18/18
f 18/18/18 17/17/17 19/19/19
f 18/18/18 19/19/19 20/20/20
f 20/20/20 19/19/19 21/21/21
f 20/20/20 21/21/21 22/22/22
f 22/22/22 21/21/21 23/23/23
f 22/22/22 23/23/23 24/24/24
f 24/25/24 23/26/23 2/2/2
f 24/25/24 2/2/2 1/1/1
f 24/27/24 1/28/1 4/29/4
f 4/29/4 6/30/6 8/31/8
f 8/31/8 10/32/10 12/33/12
f 12/33/12 14/34/14 16/35/16
f 16/35/16 18/36/18 20/37/20
f 20/37/20 22/38/22 24/27/24
f 24/27/24 4/29/4 8/31/8
f 8/31/8 12/33/12 16/35/16
f 16/35/16 20/37/20 24/27/24
f 8/31/8 16/35/16 24/27/24
f 11/11/11 9/9/9 25/39/25
f 11/11/11 25/39/25 26/40/26
f 9/9/9 7/7/7 27/41/27
f 9/9/9 27/41/27 25/39/25
f 2/2/2 23/26/23 28/42/28
f 2/2/2 28/42/28 29/43/29
f 3/3/3 2/2/2 29/43/29
f 3/3/3 29/43/29 30/44/30
f 7/7/7 5/5/5 31/45/31
f 7/7/7 31/45/31 27/41/27
f 23/23/23 21/21/21 32/46/32
f 23/23/23 32/46/32 28/47/28
f 5/5/5 3/3/3 30/44/30
f 5/5/5 30/44/30 31/45/31
f 21/21/21 19/19/19 33/48/33
f 21/21/21 33/48/33 32/46/32
f 19/19/19 17/17/17 34/49/34
f 19/19/19 34/49/34 33/48/33
f 17/17/17 15/15/15 35/50/35
f 17/17/17 35/50/35 34/49/34
f 15/15/15 13/13/13 36/51/36
f 15/15/15 36/51/36 35/50/35
f 13/13/13 11/11/11 26/40/26
f 13/13/13 26/40/26 36/51/36
f 32/52/32 33/53/33 37/54/37
f 32/52/32 37/54/37 28/55/28
f 33/53/33 34/56/34 38/57/37
f 33/53/33 38/57/37 37/54/37
f 34/56/34 35/58/35 36/59/36
f 34/56/34 36/59/36 38/57/37
f 28/55/28 37/54/37 39/60/37
f 28/55/28 39/60/37 29/61/29
f 37/54/37 38/57/37 40/62/37
f 37/54/37 40/62/37 39/60/37
f 38/57/37 36/59/36 26/63/26
f 38/57/37 26/63/26 40/62/37
f 29/61/29 39/60/37 31/64/31
f 29/61/29 31/64/31 30/65/30
f 39/60/37 40/62/37 27/66/27
f 39/60/37 27/66/27 31/64/31
f 40/62/37 26/63/26 25/67/25
f 40/62/37 25/67/25 27/66/27

# Mesh
g Cylinder.009_Cylinder.020-1
usemtl Material.053
f 41/68/38 42/69/39 43/70/40
f 41/68/38 43/70/40 44/71/41
f 44/71/41 43/70/40 45/72/42
f 44/71/41 45/72/42 46/73/43
f 46/73/43 45/72/42 47/74/44
f 46/73/43 47/74/44 48/75/45
f 48/75/45 47/74/44 49/76/46
f 48/75/45 49/76/46 50/77/47
f 50/77/47 49/76/46 51/78/48
f 50/77/47 51/78/48 52/79/49
f 52/79/49 51/78/48 53/80/50
f 52/79/49 53/80/50 54/81/51
f 54/81/51 53/80/50 55/82/52
f 54/81/51 55/82/52 56/83/53
f 56/83/53 55/82/52 57/84/54
f 56/83/53 57/84/54 58/85/55
f 58/85/55 57/84/54 59/86/56
f 58/85/55 59/86/56 60/87/57
f 60/87/57 59/86/56 61/88/58
f 60/87/57 61/88/58 62/89/59
f 55/82/52 53/80/50 63/80/60
f 55/82/52 63/80/60 64/82/61
f 62/89/59 61/88/58 65/90/62
f 62/89/59 65/90/62 66/91/63
f 66/91/63 65/90/62 42/92/39
f 66/91/63 42/92/39 41/93/38
f 66/94/63 41/95/38 44/96/41
f 44/96/41 46/97/43 48/98/45
f 48/98/45 50/99/47 52/100/49
f 52/100/49 54/101/51 56/102/53
f 56/102/53 58/103/55 60/104/57
f 60/104/57 62/105/59 66/94/63
f 66/94/63 44/96/41 48/98/45
f 48/98/45 52/100/49 56/102/53
f 56/102/53 60/104/57 66/94/63
f 48/98/45 56/102/53 66/94/63
f 67/72/64 68/70/65 69/70/65
f 67/72/64 69/70/65 70/72/64
f 53/80/50 51/78/48 71/78/66
f 53/80/50 71/78/66 63/80/60
f 51/78/48 49/76/46 72/76/67
f 51/78/48 72/76/67 71/78/66
f 49/76/46 47/74/44 73/74/68
f 49/76/46 73/74/68 72/76/67
f 42/92/39 65/90/62 74/90/69
f 42/92/39 74/90/69 75/92/70
f 43/70/40 42/69/39 75/69/70
f 43/70/40 75/69/70 68/70/71
f 47/74/44 45/72/42 67/72/72
f 47/74/44 67/72/72 73/74/68
f 65/90/62 61/88/58 76/88/73
f 65/90/62 76/88/73 74/90/69
f 45/72/42 43/70/40 68/70/71
f 45/72/42 68/70/71 67/72/72
f 61/88/58 59/86/56 77/86/74
f 61/88/58 77/86/74 76/88/73
f 59/86/56 57/84/54 78/84/75
f 59/86/56 78/84/75 77/86/74
f 57/84/54 55/82/52 64/82/61
f 57/84/54 64/82/61 78/84/75
f 79/92/76 80/90/77 81/90/78
f 79/92/76 81/90/78 82/92/79
f 77/86/80 78/84/81 83/84/81
f 77/86/80 83/84/81 84/86/80
f 63/80/82 71/78/83 85/78/83
f 63/80/82 85/78/83 86/80/82
f 73/74/84 67/72/64 70/72/64
f 73/74/84 70/72/64 87/74/84
f 76/88/85 77/86/80 84/86/80
f 76/88/85 84/86/80 88/88/85
f 64/82/86 63/80/82 86/80/82
f 64/82/86 86/80/82 89/82/86
f 72/76/87 73/74/84 87/74/84
f 72/76/87 87/74/84 90/76/87
f 74/90/88 76/88/85 88/88/85
f 74/90/88 88/88/85 80/90/88
f 68/70/65 75/69/89 79/69/89
f 68/70/65 79/69/89 69/70/65
f 78/84/81 64/82/86 89/82/86
f 78/84/81 89/82/86 83/84/81
f 71/78/83 72/76/87 90/76/87
f 71/78/83 90/76/87 85/78/83
f 75/92/89 74/90/88 80/90/88
f 75/92/89 80/90/88 79/92/89
f 91/78/90 92/76/91 93/76/92
f 91/78/90 93/76/92 94/78/93
f 70/72/94 69/70/95 95/70/96
f 70/72/94 95/70/96 96/72/97
f 84/86/98 83/84/99 97/84/100
f 84/86/98 97/84/100 98/86/101
f 86/80/102 85/78/103 91/78/90
f 86/80/102 91/78/90 99/80/104
f 87/74/105 70/72/94 96/72/97
f 87/74/105 96/72/97 100/74/106
f 88/88/107 84/86/98 98/86/101
f 88/88/107 98/86/101 101/88/108
f 89/82/109 86/80/102 99/80/104
f 89/82/109 99/80/104 102/82/110
f 90/76/111 87/74/105 100/74/106
f 90/76/111 100/74/106 92/76/91
f 80/90/77 88/88/107 101/88/108
f 80/90/77 101/88/108 81/90/78
f 69/70/95 79/69/76 82/69/79
f 69/70/95 82/69/79 95/70/96
f 83/84/99 89/82/109 102/82/110
f 83/84/99 102/82/110 97/84/100
f 85/78/103 90/76/111 92/76/91
f 85/78/103 92/76/91 91/78/90
f 103/72/112 104/70/113 105/76/37
f 103/72/112 105/76/37 106/74/114
f 82/92/79 81/90/78 107/90/115
f 82/92/79 107/90/115 108/92/116
f 96/72/97 95/70/96 104/70/113
f 96/72/97 104/70/113 103/72/112
f 98/86/101 97/84/100 109/84/117
f 98/86/101 109/84/117 110/86/118
f 99/80/104 91/78/90 94/78/93
f 99/80/104 94/78/93 111/80/119
f 100/74/106 96/72/97 103/72/112
f 100/74/106 103/72/112 106/74/114
f 101/88/108 98/86/101 110/86/118
f 101/88/108 110/86/118 112/88/120
f 102/82/110 99/80/104 111/80/119
f 102/82/110 111/80/119 113/82/121
f 92/76/91 100/74/106 106/74/114
f 92/76/91 106/74/114 93/76/92
f 81/90/78 101/88/108 112/88/120
f 81/90/78 112/88/120 107/90/115
f 95/70/96 82/69/79 108/69/116
f 95/70/96 108/69/116 104/70/113
f 97/84/100 102/82/110 113/82/121
f 97/84/100 113/82/121 109/84/117
f 104/70/113 108/69/116 114/78/37
f 104/70/113 114/78/37 105/76/37
f 108/92/116 107/90/115 112/88/120
f 108/92/116 112/88/120 114/106/37
f 106/74/114 105/76/37 115/107/37
f 106/74/114 115/107/37 93/76/92
f 105/76/37 114/78/37 116/108/37
f 105/76/37 116/108/37 115/107/37
f 114/106/37 112/88/120 110/86/118
f 114/106/37 110/86/118 116/109/37
f 93/76/92 115/107/37 111/80/119
f 93/76/92 111/80/119 94/78/93
f 115/107/37 116/108/37 113/82/121
f 115/107/37 113/82/121 111/80/119
f 116/109/37 110/86/118 109/84/117
f 116/109/37 109/84/117 113/82/121
