# File produced by Open Asset Import Library (http://www.assimp.sf.net)
# (assimp v3.1.118612264)

mtllib deckwip.mtl

# vertex positions
v -6.602322 -0.362092 5.260365
v -6.602322 0.400818 5.260365
v -7.515161 0.400818 5.260365
v -7.515161 -0.362092 5.260365
v -6.602322 -0.362092 4.707582
v -7.515161 -0.362092 4.707582
v -8.363224 -0.362092 5.260365
v -8.363224 0.400818 5.260365
v -24.434772 0.400818 5.260365
v -24.434772 -0.362092 5.260365
v -6.602322 0.743439 5.260365
v -7.515161 1.629464 5.260365
v -7.515161 0.400818 4.707582
v -7.515161 1.629464 4.707582
v -6.602322 0.743439 4.707582
v -6.602322 0.400818 4.707582
v -8.363224 0.400818 4.707582
v -8.363224 1.629463 4.707582
v -8.363224 -0.362092 4.707582
v -8.363224 1.629464 5.260365
v -5.739672 -0.362092 4.707582
v -5.739672 -0.362092 5.260365
v -5.739672 0.400818 5.260365
v -5.739672 0.743441 5.260365
v -5.739672 0.743441 4.707582
v -5.739672 0.400818 4.707582
v -1.440978 -0.362092 4.707582
v -1.440978 -0.362092 5.260365
v -1.440978 0.400818 5.260365
v -1.440978 0.743440 5.260365
v -1.440978 0.743440 4.707585
v -1.440978 0.400819 4.707582
v -8.087374 2.580730 4.821208
v -8.087374 2.580730 5.146739
v -7.791010 2.580730 5.146739
v -7.791010 2.580731 4.821208
v -8.087451 1.790564 4.821124
v -8.087451 2.419658 4.821124
v -7.790933 2.419658 4.821124
v -7.790935 1.790564 4.821124
v -7.790933 2.419658 5.146825
v -7.790935 1.790564 5.146825
v -8.087451 2.419658 5.146825
v -8.087451 1.790564 5.146825
v -8.035561 2.497127 4.878121
v -7.842823 2.497127 4.878121
v -7.842823 2.497127 5.089828
v -8.035561 2.497127 5.089828
v 6.602322 -0.362092 5.260365
v 7.515161 -0.362092 5.260365
v 7.515161 0.400818 5.260365
v 6.602322 0.400818 5.260365
v 6.602322 -0.362092 4.707582
v 7.515161 -0.362092 4.707582
v 8.363224 -0.362092 5.260365
v 8.363224 -0.362092 4.707582
v 18.833015 -0.362092 4.707582
v 18.833015 -0.362092 5.260365
v 8.363224 0.400818 4.707582
v 8.363224 1.629463 4.707582
v 18.833015 1.629463 4.707582
v 18.833015 0.400818 4.707582
v 7.515161 1.629464 5.260365
v 6.602322 0.743439 5.260365
v 7.515161 0.400818 4.707582
v 6.602322 0.400818 4.707582
v 6.602322 0.743439 4.707582
v 7.515161 1.629464 4.707582
v 8.363224 0.400818 5.260365
v 8.363224 1.629464 5.260365
v 5.739672 -0.362092 5.260365
v 5.739672 -0.362092 4.707582
v 5.739672 0.400818 5.260365
v 5.739672 0.743441 5.260365
v 5.739672 0.400818 4.707582
v 5.739672 0.743441 4.707582
v 1.440978 -0.362092 5.260365
v 1.440978 -0.362092 4.707582
v 1.440978 0.400818 5.260365
v 1.440978 0.743440 5.260365
v 1.440978 0.743440 4.707585
v 1.440978 0.400819 4.707582
v 8.087374 2.580730 4.821208
v 7.791010 2.580731 4.821208
v 7.791010 2.580730 5.146739
v 8.087374 2.580730 5.146739
v 8.087451 1.790564 4.821124
v 7.790935 1.790564 4.821124
v 7.790934 2.419658 4.821124
v 8.087451 2.419658 4.821124
v 7.790935 1.790564 5.146825
v 7.790934 2.419658 5.146825
v 8.087451 1.790564 5.146825
v 8.087451 2.419658 5.146825
v 7.842823 2.497127 4.878121
v 8.035561 2.497127 4.878121
v 7.842823 2.497127 5.089828
v 8.035561 2.497127 5.089828
v -24.434772 -0.362091 -15.600341
v -24.434772 0.400818 -15.600341
v -8.363224 0.400818 -15.600341
v -8.363224 -0.362091 -15.600341
v -7.515161 0.400818 -15.600341
v -7.515161 -0.362091 -15.600341
v 18.833015 0.400818 5.260365
v -6.602322 0.400818 -15.600341
v -6.602322 -0.362091 -15.600341
v -5.739672 0.400818 -15.600341
v -5.739672 -0.362091 -15.600341
v -1.440978 0.400819 -15.600341
v -1.440978 -0.362091 -15.600341
v 1.440978 0.400819 -15.600341
v 1.440978 -0.362091 -15.600341
v 5.739672 0.400818 -15.600341
v 5.739672 -0.362091 -15.600341
v 6.602322 0.400818 -15.600341
v 6.602322 -0.362091 -15.600341
v 7.515161 0.400818 -15.600341
v 7.515161 -0.362091 -15.600341
v 8.363224 0.400818 -15.600341
v 8.363224 -0.362091 -15.600341
v 18.833015 1.629464 5.260365
v 18.833015 0.400818 -15.600341
v 18.833015 -0.362091 -15.600341
v -24.434772 -0.362092 4.707582
v -24.434772 0.400818 4.707582
v -24.434772 1.629464 5.260365
v -24.434772 1.629463 4.707582
v -7.339572 2.578907 5.368695
v -7.339572 2.800435 5.368695
v -8.473207 2.800435 5.368695
v -8.473207 2.578907 5.368695
v -7.339572 2.800435 4.574775
v -8.473207 2.800435 4.574775
v -7.339572 2.578907 4.574775
v -8.473207 2.578907 4.574775
v -7.204996 2.584483 4.659544
v -7.204996 2.794859 4.659544
v -7.204996 2.794859 5.283927
v -7.204996 2.584483 5.283927
v -8.470088 1.629464 5.387315
v -8.470088 1.790564 5.387315
v -24.541636 1.790564 5.387315
v -24.541636 1.629464 5.387315
v -8.470088 1.629463 4.580634
v -24.541636 1.629463 4.580634
v -7.515161 1.790564 4.707582
v -7.515161 1.790564 5.260365
v -6.602322 0.904540 5.260365
v -6.602322 0.904540 4.707582
v -5.739672 0.904542 5.260365
v -5.739672 0.904542 4.707582
v -1.440978 0.904540 5.260365
v -1.440978 0.904540 4.707585
v -8.470088 1.790564 4.580634
v -7.515161 1.790564 4.580634
v -7.515161 1.629464 4.580634
v -7.515161 1.629464 5.387315
v -7.515161 1.790564 5.387315
v -6.602322 0.904540 4.580634
v -6.602322 0.743439 4.580634
v -6.602322 0.743439 5.387315
v -6.602322 0.904540 5.387315
v -5.739672 0.904542 4.580634
v -5.739672 0.743441 4.580634
v -5.739672 0.743441 5.387315
v -5.739672 0.904542 5.387315
v -1.440978 0.904540 4.580636
v -1.440978 0.743440 4.580636
v -1.440978 0.743440 5.387315
v -1.440978 0.904540 5.387315
v -8.363224 1.790564 4.707582
v -8.363224 1.790564 5.260365
v -24.541636 1.790564 4.580634
v 7.339573 2.578907 5.368695
v 8.473207 2.578907 5.368695
v 8.473207 2.800435 5.368695
v 7.339573 2.800435 5.368695
v 8.473207 2.800435 4.574775
v 7.339573 2.800435 4.574775
v 8.473207 2.578907 4.574775
v 7.339573 2.578907 4.574775
v 7.204996 2.584483 4.659544
v 7.204996 2.584483 5.283927
v 7.204996 2.794859 5.283927
v 7.204996 2.794859 4.659544
v 8.470087 1.790564 5.387315
v 8.470087 1.629464 5.387315
v 18.939878 1.629464 5.387315
v 18.939878 1.790564 5.387315
v 7.515161 1.790564 4.707582
v 6.602322 0.904540 4.707582
v 6.602322 0.904540 5.260365
v 7.515161 1.790564 5.260365
v 5.739672 0.904542 4.707582
v 5.739672 0.904542 5.260365
v 1.440978 0.904540 4.707585
v 1.440978 0.904540 5.260365
v 8.470087 1.629463 4.580634
v 7.515161 1.629464 4.580634
v 7.515161 1.790564 4.580634
v 8.470087 1.790564 4.580634
v 7.515161 1.629464 5.387315
v 7.515161 1.790564 5.387315
v 6.602322 0.743439 4.580634
v 6.602322 0.904540 4.580634
v 6.602322 0.743439 5.387315
v 6.602322 0.904540 5.387315
v 5.739672 0.743441 4.580634
v 5.739672 0.904542 4.580634
v 5.739672 0.743441 5.387315
v 5.739672 0.904542 5.387315
v 1.440978 0.743440 4.580636
v 1.440978 0.904540 4.580636
v 1.440978 0.743440 5.387315
v 1.440978 0.904540 5.387315
v 8.363224 1.790564 4.707582
v 8.363224 1.790564 5.260365
v 18.939878 1.629463 4.580634
v 18.939878 1.790564 4.580634
v -22.649506 0.003608 4.812587
v -22.649506 0.467241 4.812588
v -22.649506 0.467241 4.621689
v -22.649506 0.003608 4.621688
v 17.813643 0.467241 4.621689
v 17.813643 0.003608 4.621688
v 17.813643 0.467241 4.812588
v 17.813643 0.003608 4.812587

# UV coordinates
vt 0.521650 0.067942
vt 0.521778 0.053798
vt 0.529540 0.053952
vt 0.529412 0.068095
vt 0.011369 0.366745
vt 0.000000 0.366745
vt 0.000000 0.347971
vt 0.011369 0.347971
vt 0.536623 0.068237
vt 0.536751 0.054094
vt 0.673407 0.056793
vt 0.673279 0.070936
vt 0.521837 0.047446
vt 0.529755 0.031171
vt 0.525854 0.460911
vt 0.525647 0.483689
vt 0.518034 0.467110
vt 0.518092 0.460758
vt 0.533065 0.461054
vt 0.532858 0.483831
vt 0.000000 0.330530
vt 0.011369 0.330530
vt 0.536976 0.031310
vt 0.011369 0.384486
vt 0.000000 0.384486
vt 0.514315 0.067797
vt 0.514443 0.053654
vt 0.514502 0.047301
vt 0.510699 0.466965
vt 0.510757 0.460613
vt 0.011369 0.472894
vt 0.000000 0.472894
vt 0.477763 0.067075
vt 0.477891 0.052932
vt 0.477950 0.046579
vt 0.474147 0.466243
vt 0.474205 0.459891
vt 0.525473 0.896546
vt 0.525473 0.889851
vt 0.531569 0.889851
vt 0.531569 0.896546
vt 0.477981 0.897023
vt 0.490548 0.898293
vt 0.490385 0.904253
vt 0.478080 0.903694
vt 0.490114 0.909941
vt 0.478527 0.910458
vt 0.489899 0.914708
vt 0.478955 0.915616
vt 0.478300 0.889851
vt 0.492152 0.890468
vt 0.493395 0.898296
vt 0.492807 0.904240
vt 0.492035 0.910003
vt 0.491614 0.913755
vt 0.494457 0.892451
vt 0.496286 0.898660
vt 0.495194 0.904926
vt 0.494012 0.910460
vt 0.492941 0.914897
vt 0.496286 0.891536
vt 0.409371 0.065724
vt 0.401609 0.065571
vt 0.401737 0.051428
vt 0.409499 0.051581
vt 0.011369 0.638313
vt 0.011369 0.657087
vt 0.000000 0.657087
vt 0.000000 0.638313
vt 0.000000 0.674528
vt 0.011369 0.674528
vt 0.011369 0.889851
vt 0.000000 0.889851
vt 0.390840 0.458245
vt 0.390634 0.481022
vt 0.301609 0.479264
vt 0.301816 0.456487
vt 0.401948 0.028646
vt 0.409558 0.045228
vt 0.398051 0.458387
vt 0.405813 0.458541
vt 0.405755 0.464892
vt 0.397845 0.481165
vt 0.394398 0.065429
vt 0.394526 0.051285
vt 0.394733 0.028508
vt 0.000000 0.620572
vt 0.011369 0.620572
vt 0.416834 0.051726
vt 0.416706 0.065869
vt 0.416893 0.045373
vt 0.413148 0.458686
vt 0.413090 0.465037
vt 0.000000 0.532164
vt 0.011369 0.532164
vt 0.453386 0.052448
vt 0.453258 0.066591
vt 0.453445 0.046095
vt 0.449642 0.465759
vt 0.449700 0.459407
vt 0.519378 0.889851
vt 0.519378 0.896546
vt 0.496286 0.908804
vt 0.496286 0.902288
vt 0.508751 0.902109
vt 0.508558 0.907585
vt 0.496547 0.895426
vt 0.508667 0.896349
vt 0.496884 0.889851
vt 0.508711 0.890566
vt 0.496648 0.915622
vt 0.509818 0.914923
vt 0.510605 0.902041
vt 0.511165 0.907662
vt 0.511201 0.896128
vt 0.510772 0.891715
vt 0.512003 0.913123
vt 0.513165 0.901602
vt 0.513867 0.907436
vt 0.513348 0.895921
vt 0.512482 0.890466
vt 0.513667 0.914017
vt 0.305708 0.026750
vt 0.305836 0.012607
vt 0.442492 0.015305
vt 0.442364 0.029449
vt 0.449703 0.015448
vt 0.449579 0.029588
vt 0.665704 0.907138
vt 0.665797 0.896890
vt 0.672284 0.897019
vt 0.672191 0.907266
vt 0.457465 0.015601
vt 0.457344 0.029739
vt 0.464800 0.015746
vt 0.464679 0.029884
vt 0.501352 0.016468
vt 0.501232 0.030607
vt 0.525857 0.016952
vt 0.525737 0.031092
vt 0.562409 0.017674
vt 0.562289 0.031815
vt 0.569744 0.017819
vt 0.569624 0.031960
vt 0.577506 0.017972
vt 0.577383 0.032114
vt 0.584717 0.018114
vt 0.584589 0.032257
vt 0.682724 0.897239
vt 0.682631 0.907487
vt 0.673741 0.019873
vt 0.673613 0.034016
vt 0.305374 0.063670
vt 0.305502 0.049527
vt 0.493730 0.457477
vt 0.468775 0.457221
vt 0.470574 0.073821
vt 0.495529 0.074076
vt 0.455271 0.898206
vt 0.316102 0.896783
vt 0.317901 0.513382
vt 0.457069 0.514806
vt 0.424081 0.456764
vt 0.416176 0.456683
vt 0.417975 0.073283
vt 0.425880 0.073364
vt 0.408833 0.456608
vt 0.410632 0.073208
vt 0.538424 0.457934
vt 0.530954 0.457857
vt 0.532753 0.074457
vt 0.540223 0.074533
vt 0.298144 0.452509
vt 0.304099 0.452687
vt 0.301919 0.611188
vt 0.295965 0.611009
vt 0.431551 0.456841
vt 0.433350 0.073440
vt 0.305708 0.026750
vt 0.686448 0.486864
vt 0.679961 0.486736
vt 0.680054 0.476488
vt 0.686541 0.476617
vt 0.318172 0.455681
vt 0.319970 0.072280
vt 0.514918 0.899003
vt 0.477944 0.898458
vt 0.479780 0.515037
vt 0.516991 0.515439
vt 0.600110 0.899688
vt 0.592763 0.899617
vt 0.594565 0.516214
vt 0.601909 0.516287
vt 0.584844 0.899551
vt 0.577353 0.899495
vt 0.579188 0.516074
vt 0.586660 0.516141
vt 0.470498 0.898370
vt 0.462609 0.898283
vt 0.464412 0.514880
vt 0.472314 0.514960
vt 0.553672 0.458090
vt 0.546329 0.458015
vt 0.548128 0.074614
vt 0.555471 0.074689
vt 0.539883 0.899297
vt 0.541953 0.515708
vt 0.669514 0.486530
vt 0.669608 0.476286
vt 0.669721 0.463753
vt 0.669514 0.486530
vt 0.690771 0.900615
vt 0.692570 0.517215
vt -0.000000 0.000000
vt 0.011369 0.000000
vt 0.673613 0.034016
vt 0.672065 -0.007166
vt 0.671998 0.007237
vt 0.496145 0.005438
vt 0.496213 -0.008965
vt 0.692841 0.459513
vt 0.694640 0.076113
vt 0.531570 0.889874
vt 0.531569 0.889874
vt 0.531569 0.889864
vt 0.531570 0.889864
vt 0.531570 0.889852
vt 0.531574 0.889852
vt 0.531574 0.889862
vt 0.531570 0.889862
vt 0.531576 0.889874
vt 0.531574 0.889874
vt 0.531574 0.889864
vt 0.531576 0.889864
vt 0.531574 0.889875
vt 0.531574 0.889876
vt 0.531570 0.889876
vt 0.531570 0.889875
vt 0.531569 0.889876
vt 0.531570 0.889851
vt 0.531574 0.889851
vt 0.531575 0.889876
vt 0.923773 0.566330
vt 0.927217 0.566411
vt 0.917589 0.903131
vt 0.914213 0.903035
vt 0.444370 0.327927
vt 0.441800 0.330141
vt 0.437511 0.002257
vt 0.440072 0.000043
vt 0.452752 0.372925
vt 0.464023 0.372925
vt 0.464023 0.398865
vt 0.452752 0.398865
vt 0.464023 0.416455
vt 0.452752 0.416455
vt 0.464023 0.504110
vt 0.452752 0.504110
vt 0.447645 0.327864
vt 0.448408 0.349186
vt 0.444713 0.350087
vt 0.924224 0.544737
vt 0.927661 0.545535
vt 0.434970 0.377175
vt 0.431809 0.377804
vt 0.912131 0.519834
vt 0.915031 0.520355
vt 0.435294 0.394987
vt 0.431880 0.395022
vt 0.911991 0.503719
vt 0.915098 0.503725
vt 0.435916 0.489212
vt 0.432385 0.489235
vt 0.911988 0.420714
vt 0.915099 0.420714
vt 0.441640 0.349433
vt 0.450163 0.372925
vt 0.450163 0.353453
vt 0.452752 0.355632
vt 0.921187 0.545436
vt 0.921231 0.564104
vt 0.464023 0.355632
vt 0.466612 0.353453
vt 0.466612 0.372925
vt 0.443359 0.000000
vt 0.429226 0.377217
vt 0.450163 0.398865
vt 0.909604 0.520425
vt 0.466612 0.398865
vt 0.429024 0.395022
vt 0.450163 0.416455
vt 0.909537 0.503724
vt 0.466612 0.416455
vt 0.429602 0.489254
vt 0.450163 0.504110
vt 0.909536 0.420714
vt 0.466612 0.504110
vt 0.455067 0.361256
vt 0.455067 0.367302
vt 0.461708 0.367302
vt 0.461708 0.361256
vt 0.531582 0.889874
vt 0.531582 0.889864
vt 0.531583 0.889864
vt 0.531583 0.889874
vt 0.531582 0.889852
vt 0.531582 0.889862
vt 0.531577 0.889862
vt 0.531577 0.889852
vt 0.531577 0.889864
vt 0.531577 0.889874
vt 0.531578 0.889875
vt 0.531581 0.889875
vt 0.531581 0.889876
vt 0.531577 0.889876
vt 0.531582 0.889876
vt 0.531577 0.889851
vt 0.531581 0.889851
vt 0.531576 0.889876
vt 0.927217 0.219363
vt 0.923773 0.219444
vt 0.917583 0.000097
vt 0.920958 0.000000
vt 0.452752 0.694060
vt 0.452752 0.668120
vt 0.464023 0.668120
vt 0.464023 0.694060
vt 0.452752 0.650530
vt 0.464023 0.650530
vt 0.452752 0.562875
vt 0.464023 0.562875
vt 0.446889 0.713512
vt 0.446942 0.691359
vt 0.450647 0.692211
vt 0.450163 0.713532
vt 0.924224 0.241038
vt 0.927661 0.240239
vt 0.433681 0.663823
vt 0.436850 0.664410
vt 0.912131 0.265941
vt 0.915031 0.265420
vt 0.433527 0.646608
vt 0.436940 0.646599
vt 0.911991 0.282056
vt 0.915098 0.282049
vt 0.432799 0.552407
vt 0.436330 0.552384
vt 0.911988 0.365061
vt 0.915099 0.365061
vt 0.444292 0.711332
vt 0.443879 0.692053
vt 0.452752 0.711353
vt 0.450163 0.694060
vt 0.921187 0.240339
vt 0.921231 0.221671
vt 0.464023 0.711353
vt 0.466612 0.694060
vt 0.466612 0.713532
vt 0.431107 0.664443
vt 0.450163 0.668120
vt 0.909604 0.265350
vt 0.466612 0.668120
vt 0.430672 0.646646
vt 0.450163 0.650530
vt 0.909537 0.282050
vt 0.466612 0.650530
vt 0.430016 0.552425
vt 0.450163 0.562875
vt 0.909536 0.365061
vt 0.466612 0.562875
vt 0.455067 0.699683
vt 0.455067 0.705729
vt 0.461708 0.699683
vt 0.461708 0.705729
vt 0.466612 0.930305
vt 0.450163 0.930305
vt 0.450163 0.927020
vt 0.466612 0.927020
vt 0.464024 0.932484
vt 0.452752 0.932484
vt 0.446878 0.927020
vt 0.914985 0.002412
vt 0.444290 0.924841
vt 0.517181 0.906442
vt 0.513867 0.906442
vt 0.513867 0.889851
vt 0.517181 0.889851
vt 0.519378 0.903831
vt 0.519378 0.892462
vt 0.911617 0.900720
vt 0.450163 0.025740
vt 0.466612 0.025740
vt 0.000000 0.000000

# vertex normals
vn 0.000000 0.000000 1.000000
vn 0.000000 -1.000000 0.000000
vn 0.000000 -0.000000 -1.000000
vn 0.000000 1.000000 -0.000000
vn 0.009100 -0.000000 -0.999959
vn 0.000000 -0.009100 -0.999959
vn 1.000000 0.000000 0.000000
vn 0.999959 0.000000 0.009100
vn 0.999959 -0.009100 0.000000
vn -0.009100 0.000000 0.999959
vn 0.000000 -0.009100 0.999959
vn -1.000000 0.000000 0.000000
vn -0.999959 -0.000000 -0.009100
vn -0.999959 -0.009100 0.000000
vn 0.004300 0.599082 -0.800676
vn 0.005800 0.586918 -0.809625
vn 0.003100 0.585710 -0.810515
vn -0.009100 0.592622 -0.805430
vn 0.826508 0.562905 0.004800
vn 0.831601 0.555301 0.009000
vn 0.835567 0.549379 -0.003200
vn 0.830798 0.556499 -0.009100
vn -0.004300 0.599082 0.800676
vn -0.005800 0.586918 0.809625
vn -0.003100 0.585710 0.810514
vn 0.009100 0.592622 0.805429
vn -0.826508 0.562905 -0.004800
vn -0.831601 0.555301 -0.009000
vn -0.835567 0.549379 0.003200
vn -0.830798 0.556499 0.009100
vn 0.003500 -0.555804 -0.831306
vn 0.000000 -0.562728 -0.826642
vn -0.009000 -0.561581 -0.827372
vn 0.854447 -0.519528 -0.003300
vn 0.849992 -0.526795 0.000000
vn 0.853715 -0.520709 -0.005700
vn -0.003500 -0.555804 0.831306
vn 0.000000 -0.562728 0.826642
vn 0.009000 -0.561581 0.827373
vn -0.854447 -0.519528 0.003300
vn -0.849992 -0.526795 0.000000
vn -0.853715 -0.520709 0.005700
vn -0.826508 0.562905 -0.004700
vn 0.000000 0.006700 0.999978
vn -0.004700 -0.004700 0.999978
vn -0.004700 0.999978 -0.004700
vn -0.006700 0.999978 -0.000000
vn 0.000000 -0.006700 -0.999978
vn -0.004700 0.004700 -0.999978
vn -0.004700 -0.999978 0.004700
vn -0.006700 -0.999978 0.000000
vn 0.044599 -0.998987 0.005900
vn 0.041402 -0.999143 0.000000
vn 0.041401 -0.999120 -0.006700
vn 0.538628 0.000200 0.842544
vn 0.533007 0.000000 0.846111
vn 0.536915 -0.004800 0.843623
vn 0.044599 0.998987 -0.005900
vn 0.041402 0.999143 -0.000000
vn 0.041401 0.999120 0.006700
vn 0.538628 -0.000200 -0.842544
vn 0.533007 -0.000000 -0.846111
vn 0.536915 0.004800 -0.843623
vn 0.696478 0.717578 -0.000000
vn -0.696478 -0.717578 0.000000
vn 0.004700 0.004700 0.999978
vn 0.000000 -0.006700 0.999978
vn 0.006700 0.999978 -0.000000
vn 0.004700 0.999978 0.004700
vn 0.004700 -0.004700 -0.999978
vn 0.000000 0.006700 -0.999978
vn 0.006700 -0.999978 0.000000
vn 0.004700 -0.999978 -0.004700
vn -0.041401 -0.999120 0.006700
vn -0.044599 -0.998987 -0.005900
vn -0.041402 -0.999143 0.000000
vn -0.536915 0.004800 0.843623
vn -0.538628 -0.000200 0.842544
vn -0.533007 0.000000 0.846111
vn -0.041401 0.999120 -0.006700
vn -0.044599 0.998987 0.005900
vn -0.041402 0.999143 -0.000000
vn -0.536915 -0.004800 -0.843623
vn -0.538628 0.000200 -0.842544
vn -0.533007 -0.000000 -0.846111
vn -0.696478 0.717578 -0.000000
vn 0.696478 -0.717578 0.000000

# Mesh
g pCube4_Mesh-0
usemtl standardSurface1
f 1/1/1 2/2/1 3/3/1
f 1/1/1 3/3/1 4/4/1
f 5/5/2 1/6/2 4/7/2
f 5/5/2 4/7/2 6/8/2
f 7/9/1 8/10/1 9/11/1
f 7/9/1 9/11/1 10/12/1
f 2/2/1 11/13/1 12/14/1
f 2/2/1 12/14/1 3/3/1
f 13/15/3 14/16/3 15/17/3
f 13/15/3 15/17/3 16/18/3
f 17/19/3 18/20/3 14/16/3
f 17/19/3 14/16/3 13/15/3
f 4/7/2 7/21/2 19/22/2
f 4/7/2 19/22/2 6/8/2
f 3/3/1 8/10/1 7/9/1
f 3/3/1 7/9/1 4/4/1
f 12/14/1 20/23/1 8/10/1
f 12/14/1 8/10/1 3/3/1
f 5/5/2 21/24/2 22/25/2
f 5/5/2 22/25/2 1/6/2
f 1/1/1 22/26/1 23/27/1
f 1/1/1 23/27/1 2/2/1
f 2/2/1 23/27/1 24/28/1
f 2/2/1 24/28/1 11/13/1
f 15/17/3 25/29/3 26/30/3
f 15/17/3 26/30/3 16/18/3
f 21/24/2 27/31/2 28/32/2
f 21/24/2 28/32/2 22/25/2
f 22/26/1 28/33/1 29/34/1
f 22/26/1 29/34/1 23/27/1
f 30/35/1 24/28/1 23/27/1
f 30/35/1 23/27/1 29/34/1
f 31/36/3 32/37/3 26/30/3
f 31/36/3 26/30/3 25/29/3
f 33/38/4 34/39/4 35/40/4
f 33/38/4 35/40/4 36/41/4
f 37/42/3 38/43/5 39/44/6
f 37/42/3 39/44/6 40/45/3
f 40/45/7 39/44/8 41/46/9
f 40/45/7 41/46/9 42/47/7
f 42/47/1 41/46/10 43/48/11
f 42/47/1 43/48/11 44/49/1
f 44/50/12 43/51/13 38/43/14
f 44/50/12 38/43/14 37/42/12
f 38/43/15 45/52/16 46/53/17
f 38/43/15 46/53/17 39/44/18
f 39/44/19 46/53/20 47/54/21
f 39/44/19 47/54/21 41/46/22
f 41/46/23 47/54/24 48/55/25
f 41/46/23 48/55/25 43/48/26
f 43/51/27 48/56/28 45/52/29
f 43/51/27 45/52/29 38/43/30
f 45/52/31 33/57/32 36/58/32
f 45/52/31 36/58/32 46/53/33
f 46/53/34 36/58/35 35/59/35
f 46/53/34 35/59/35 47/54/36
f 47/54/37 35/59/38 34/60/38
f 47/54/37 34/60/38 48/55/39
f 48/56/40 34/61/41 33/57/41
f 48/56/40 33/57/41 45/52/42
f 49/62/1 50/63/1 51/64/1
f 49/62/1 51/64/1 52/65/1
f 53/66/2 54/67/2 50/68/2
f 53/66/2 50/68/2 49/69/2
f 55/70/2 56/71/2 57/72/2
f 55/70/2 57/72/2 58/73/2
f 59/74/3 60/75/3 61/76/3
f 59/74/3 61/76/3 62/77/3
f 52/65/1 51/64/1 63/78/1
f 52/65/1 63/78/1 64/79/1
f 65/80/3 66/81/3 67/82/3
f 65/80/3 67/82/3 68/83/3
f 59/74/3 65/80/3 68/83/3
f 59/74/3 68/83/3 60/75/3
f 50/68/2 54/67/2 56/71/2
f 50/68/2 56/71/2 55/70/2
f 51/64/1 50/63/1 55/84/1
f 51/64/1 55/84/1 69/85/1
f 63/78/1 51/64/1 69/85/1
f 63/78/1 69/85/1 70/86/1
f 53/66/2 49/69/2 71/87/2
f 53/66/2 71/87/2 72/88/2
f 49/62/1 52/65/1 73/89/1
f 49/62/1 73/89/1 71/90/1
f 52/65/1 64/79/1 74/91/1
f 52/65/1 74/91/1 73/89/1
f 67/82/3 66/81/3 75/92/3
f 67/82/3 75/92/3 76/93/3
f 72/88/2 71/87/2 77/94/2
f 72/88/2 77/94/2 78/95/2
f 71/90/1 73/89/1 79/96/1
f 71/90/1 79/96/1 77/97/1
f 80/98/1 79/96/1 73/89/1
f 80/98/1 73/89/1 74/91/1
f 81/99/3 76/93/3 75/92/3
f 81/99/3 75/92/3 82/100/3
f 83/101/4 84/39/4 85/38/4
f 83/101/4 85/38/4 86/102/4
f 87/103/3 88/104/3 89/105/5
f 87/103/3 89/105/5 90/106/6
f 88/104/12 91/107/12 92/108/13
f 88/104/12 92/108/13 89/105/14
f 91/107/1 93/109/1 94/110/10
f 91/107/1 94/110/10 92/108/11
f 93/111/7 87/103/7 90/106/8
f 93/111/7 90/106/8 94/112/9
f 90/106/18 89/105/15 95/113/16
f 90/106/18 95/113/16 96/114/17
f 89/105/30 92/108/43 97/115/28
f 89/105/30 97/115/28 95/113/29
f 92/108/26 94/110/23 98/116/24
f 92/108/26 98/116/24 97/115/25
f 94/112/22 90/106/19 96/114/20
f 94/112/22 96/114/20 98/117/21
f 96/114/33 95/113/31 84/118/32
f 96/114/33 84/118/32 83/119/32
f 95/113/42 97/115/40 85/120/41
f 95/113/42 85/120/41 84/118/41
f 97/115/39 98/116/37 86/121/38
f 97/115/39 86/121/38 85/120/38
f 98/117/36 96/114/34 83/119/35
f 98/117/36 83/119/35 86/122/35
f 77/94/2 28/32/2 27/31/2
f 77/94/2 27/31/2 78/95/2
f 79/96/1 29/34/1 28/33/1
f 79/96/1 28/33/1 77/97/1
f 99/123/3 100/124/3 101/125/3
f 99/123/3 101/125/3 102/126/3
f 102/126/3 101/125/3 103/127/3
f 102/126/3 103/127/3 104/128/3
f 80/98/1 30/35/1 29/34/1
f 80/98/1 29/34/1 79/96/1
f 82/100/3 32/37/3 31/36/3
f 82/100/3 31/36/3 81/99/3
f 58/129/7 57/130/7 62/131/7
f 58/129/7 62/131/7 105/132/7
f 104/128/3 103/127/3 106/133/3
f 104/128/3 106/133/3 107/134/3
f 107/134/3 106/133/3 108/135/3
f 107/134/3 108/135/3 109/136/3
f 109/136/3 108/135/3 110/137/3
f 109/136/3 110/137/3 111/138/3
f 111/138/3 110/137/3 112/139/3
f 111/138/3 112/139/3 113/140/3
f 113/140/3 112/139/3 114/141/3
f 113/140/3 114/141/3 115/142/3
f 115/142/3 114/141/3 116/143/3
f 115/142/3 116/143/3 117/144/3
f 117/144/3 116/143/3 118/145/3
f 117/144/3 118/145/3 119/146/3
f 119/146/3 118/145/3 120/147/3
f 119/146/3 120/147/3 121/148/3
f 105/132/7 62/131/7 61/149/7
f 105/132/7 61/149/7 122/150/7
f 121/148/3 120/147/3 123/151/3
f 121/148/3 123/151/3 124/152/3
f 69/85/1 55/84/1 58/153/1
f 69/85/1 58/153/1 105/154/1
f 32/155/4 82/156/4 112/157/4
f 32/155/4 112/157/4 110/158/4
f 19/159/2 125/160/2 99/161/2
f 19/159/2 99/161/2 102/162/2
f 66/163/4 65/164/4 118/165/4
f 66/163/4 118/165/4 116/166/4
f 65/164/4 59/167/4 120/168/4
f 65/164/4 120/168/4 118/165/4
f 16/169/4 26/170/4 108/171/4
f 16/169/4 108/171/4 106/172/4
f 62/173/7 57/174/7 124/175/7
f 62/173/7 124/175/7 123/176/7
f 82/156/4 75/177/4 114/178/4
f 82/156/4 114/178/4 112/157/4
f 70/86/1 69/85/1 105/154/1
f 70/86/1 105/154/1 122/179/1
f 10/180/12 9/181/12 126/182/12
f 10/180/12 126/182/12 125/183/12
f 59/167/4 62/184/4 123/185/4
f 59/167/4 123/185/4 120/168/4
f 27/186/2 21/187/2 109/188/2
f 27/186/2 109/188/2 111/189/2
f 56/190/2 54/191/2 119/192/2
f 56/190/2 119/192/2 121/193/2
f 53/194/2 72/195/2 115/196/2
f 53/194/2 115/196/2 117/197/2
f 5/198/2 6/199/2 104/200/2
f 5/198/2 104/200/2 107/201/2
f 17/202/4 13/203/4 103/204/4
f 17/202/4 103/204/4 101/205/4
f 78/206/2 27/186/2 111/189/2
f 78/206/2 111/189/2 113/207/2
f 72/195/2 78/206/2 113/207/2
f 72/195/2 113/207/2 115/196/2
f 9/181/12 127/208/12 128/209/12
f 9/181/12 128/209/12 126/182/12
f 18/20/3 17/19/3 126/210/3
f 18/20/3 126/210/3 128/211/3
f 13/203/4 16/169/4 106/172/4
f 13/203/4 106/172/4 103/204/4
f 57/212/2 56/190/2 121/193/2
f 57/212/2 121/193/2 124/213/2
f 75/177/4 66/163/4 116/166/4
f 75/177/4 116/166/4 114/178/4
f 19/22/2 7/21/2 10/214/2
f 19/22/2 10/214/2 125/215/2
f 8/10/1 20/23/1 127/216/1
f 8/10/1 127/216/1 9/11/1
f 125/217/12 126/218/12 100/219/12
f 125/217/12 100/219/12 99/220/12
f 6/199/2 19/159/2 102/162/2
f 6/199/2 102/162/2 104/200/2
f 26/170/4 32/155/4 110/158/4
f 26/170/4 110/158/4 108/171/4
f 126/221/4 17/202/4 101/205/4
f 126/221/4 101/205/4 100/222/4
f 54/191/2 53/194/2 117/197/2
f 54/191/2 117/197/2 119/192/2
f 21/187/2 5/198/2 107/201/2
f 21/187/2 107/201/2 109/188/2

# Mesh
g pCube4_Mesh-1
usemtl Material.001
f 129/223/44 130/224/45 131/225/1
f 129/223/44 131/225/1 132/226/1
f 130/227/46 133/228/47 134/229/4
f 130/227/46 134/229/4 131/230/4
f 133/231/48 135/232/49 136/233/3
f 133/231/48 136/233/3 134/234/3
f 135/232/50 129/223/51 132/226/2
f 135/232/50 132/226/2 136/233/2
f 132/226/12 131/230/12 134/229/12
f 132/226/12 134/229/12 136/233/12
f 137/235/7 138/236/7 139/237/7
f 137/235/7 139/237/7 140/238/7
f 135/232/52 137/235/53 140/238/53
f 135/232/52 140/238/53 129/223/54
f 129/223/55 140/238/56 139/237/56
f 129/223/55 139/237/56 130/239/57
f 130/227/58 139/240/59 138/241/59
f 130/227/58 138/241/59 133/228/60
f 133/242/61 138/236/62 137/235/62
f 133/242/61 137/235/62 135/232/63
f 141/243/1 142/244/1 143/245/1
f 141/243/1 143/245/1 144/246/1
f 145/247/2 18/248/2 128/249/2
f 145/247/2 128/249/2 146/250/2
f 147/251/64 148/252/64 149/253/64
f 147/251/64 149/253/64 150/254/64
f 150/254/4 149/253/4 151/255/4
f 150/254/4 151/255/4 152/256/4
f 152/256/4 151/255/4 153/257/4
f 152/256/4 153/257/4 154/258/4
f 145/247/3 155/259/3 156/260/3
f 145/247/3 156/260/3 157/261/3
f 158/262/1 159/263/1 142/244/1
f 158/262/1 142/244/1 141/243/1
f 157/261/3 156/260/3 160/264/3
f 157/261/3 160/264/3 161/265/3
f 162/266/1 163/267/1 159/263/1
f 162/266/1 159/263/1 158/262/1
f 161/265/3 160/264/3 164/268/3
f 161/265/3 164/268/3 165/269/3
f 166/270/1 167/271/1 163/267/1
f 166/270/1 163/267/1 162/266/1
f 165/269/3 164/268/3 168/272/3
f 165/269/3 168/272/3 169/273/3
f 170/274/1 171/275/1 167/271/1
f 170/274/1 167/271/1 166/270/1
f 18/248/2 145/247/2 157/261/2
f 18/248/2 157/261/2 14/276/2
f 147/251/4 156/277/4 155/278/4
f 147/251/4 155/278/4 172/279/4
f 12/280/2 158/262/2 141/243/2
f 12/280/2 141/243/2 20/281/2
f 173/282/4 142/283/4 159/284/4
f 173/282/4 159/284/4 148/252/4
f 155/259/3 145/247/3 146/250/3
f 155/259/3 146/250/3 174/285/3
f 172/279/4 155/278/4 142/283/4
f 172/279/4 142/283/4 173/282/4
f 14/276/65 157/261/65 161/265/65
f 14/276/65 161/265/65 15/286/65
f 150/254/64 160/287/64 156/277/64
f 150/254/64 156/277/64 147/251/64
f 11/288/65 162/266/65 158/262/65
f 11/288/65 158/262/65 12/280/65
f 148/252/64 159/284/64 163/289/64
f 148/252/64 163/289/64 149/253/64
f 15/286/2 161/265/2 165/269/2
f 15/286/2 165/269/2 25/290/2
f 152/256/4 164/291/4 160/287/4
f 152/256/4 160/287/4 150/254/4
f 24/292/2 166/270/2 162/266/2
f 24/292/2 162/266/2 11/288/2
f 149/253/4 163/289/4 167/293/4
f 149/253/4 167/293/4 151/255/4
f 25/290/2 165/269/2 169/273/2
f 25/290/2 169/273/2 31/294/2
f 154/258/4 168/295/4 164/291/4
f 154/258/4 164/291/4 152/256/4
f 30/296/2 170/274/2 166/270/2
f 30/296/2 166/270/2 24/292/2
f 151/255/4 167/293/4 171/297/4
f 151/255/4 171/297/4 153/257/4
f 172/279/4 37/298/4 40/299/4
f 172/279/4 40/299/4 147/251/4
f 147/251/4 40/299/4 42/300/4
f 147/251/4 42/300/4 148/252/4
f 148/252/4 42/300/4 44/301/4
f 148/252/4 44/301/4 173/282/4
f 173/282/4 44/301/4 37/298/4
f 173/282/4 37/298/4 172/279/4
f 175/302/66 176/303/1 177/304/1
f 175/302/66 177/304/1 178/305/67
f 178/306/68 177/307/4 179/308/4
f 178/306/68 179/308/4 180/309/69
f 180/231/70 179/234/3 181/310/3
f 180/231/70 181/310/3 182/311/71
f 182/311/72 181/310/2 176/303/2
f 182/311/72 176/303/2 175/302/73
f 176/303/7 181/310/7 179/308/7
f 176/303/7 179/308/7 177/307/7
f 183/312/12 184/313/12 185/314/12
f 183/312/12 185/314/12 186/315/12
f 182/311/74 175/302/75 184/313/76
f 182/311/74 184/313/76 183/312/76
f 175/302/77 178/316/78 185/314/79
f 175/302/77 185/314/79 184/313/79
f 178/306/80 180/309/81 186/317/82
f 178/306/80 186/317/82 185/318/82
f 180/319/83 182/311/84 183/312/85
f 180/319/83 183/312/85 186/315/85
f 187/320/1 188/321/1 189/322/1
f 187/320/1 189/322/1 190/323/1
f 191/324/86 192/325/86 193/326/86
f 191/324/86 193/326/86 194/327/86
f 192/325/4 195/328/4 196/329/4
f 192/325/4 196/329/4 193/326/4
f 195/328/4 197/330/4 198/331/4
f 195/328/4 198/331/4 196/329/4
f 199/332/3 200/333/3 201/334/3
f 199/332/3 201/334/3 202/335/3
f 203/336/1 188/321/1 187/320/1
f 203/336/1 187/320/1 204/337/1
f 200/333/3 205/338/3 206/339/3
f 200/333/3 206/339/3 201/334/3
f 207/340/1 203/336/1 204/337/1
f 207/340/1 204/337/1 208/341/1
f 205/338/3 209/342/3 210/343/3
f 205/338/3 210/343/3 206/339/3
f 211/344/1 207/340/1 208/341/1
f 211/344/1 208/341/1 212/345/1
f 209/342/3 213/346/3 214/347/3
f 209/342/3 214/347/3 210/343/3
f 215/348/1 211/344/1 212/345/1
f 215/348/1 212/345/1 216/349/1
f 60/350/2 68/351/2 200/333/2
f 60/350/2 200/333/2 199/332/2
f 191/324/4 217/352/4 202/335/4
f 191/324/4 202/335/4 201/353/4
f 63/354/2 70/355/2 188/321/2
f 63/354/2 188/321/2 203/336/2
f 218/356/4 194/327/4 204/357/4
f 218/356/4 204/357/4 187/358/4
f 217/352/4 218/356/4 187/358/4
f 217/352/4 187/358/4 202/335/4
f 68/351/87 67/359/87 205/338/87
f 68/351/87 205/338/87 200/333/87
f 192/325/86 191/324/86 201/353/86
f 192/325/86 201/353/86 206/360/86
f 64/361/87 63/354/87 203/336/87
f 64/361/87 203/336/87 207/340/87
f 194/327/86 193/326/86 208/362/86
f 194/327/86 208/362/86 204/357/86
f 67/359/2 76/363/2 209/342/2
f 67/359/2 209/342/2 205/338/2
f 195/328/4 192/325/4 206/360/4
f 195/328/4 206/360/4 210/364/4
f 74/365/2 64/361/2 207/340/2
f 74/365/2 207/340/2 211/344/2
f 193/326/4 196/329/4 212/366/4
f 193/326/4 212/366/4 208/362/4
f 76/363/2 81/367/2 213/346/2
f 76/363/2 213/346/2 209/342/2
f 197/330/4 195/328/4 210/364/4
f 197/330/4 210/364/4 214/368/4
f 80/369/2 74/365/2 211/344/2
f 80/369/2 211/344/2 215/348/2
f 196/329/4 198/331/4 216/370/4
f 196/329/4 216/370/4 212/366/4
f 217/352/4 191/324/4 88/371/4
f 217/352/4 88/371/4 87/372/4
f 191/324/4 194/327/4 91/373/4
f 191/324/4 91/373/4 88/371/4
f 194/327/4 218/356/4 93/374/4
f 194/327/4 93/374/4 91/373/4
f 218/356/4 217/352/4 87/372/4
f 218/356/4 87/372/4 93/374/4
f 197/330/4 154/258/4 153/257/4
f 197/330/4 153/257/4 198/331/4
f 213/346/3 169/273/3 168/272/3
f 213/346/3 168/272/3 214/347/3
f 216/349/1 171/275/1 170/274/1
f 216/349/1 170/274/1 215/348/1
f 81/367/2 31/294/2 169/273/2
f 81/367/2 169/273/2 213/346/2
f 214/368/4 168/295/4 154/258/4
f 214/368/4 154/258/4 197/330/4
f 215/348/2 170/274/2 30/296/2
f 215/348/2 30/296/2 80/369/2
f 198/331/4 153/257/4 171/297/4
f 198/331/4 171/297/4 216/370/4
f 189/375/7 219/376/7 220/377/7
f 189/375/7 220/377/7 190/378/7
f 122/379/2 61/380/2 219/376/2
f 122/379/2 219/376/2 189/375/2
f 199/332/3 202/335/3 220/377/3
f 199/332/3 220/377/3 219/381/3
f 188/321/2 70/355/2 122/382/2
f 188/321/2 122/382/2 189/322/2
f 60/350/2 199/332/2 219/381/2
f 60/350/2 219/381/2 61/383/2
f 202/335/4 187/358/4 190/378/4
f 202/335/4 190/378/4 220/377/4
f 144/384/12 143/385/12 174/386/12
f 144/384/12 174/386/12 146/387/12
f 127/388/2 144/384/2 146/387/2
f 127/388/2 146/387/2 128/389/2
f 20/281/2 141/243/2 144/246/2
f 20/281/2 144/246/2 127/390/2
f 142/283/4 155/278/4 174/391/4
f 142/283/4 174/391/4 143/392/4

# Mesh
g pCube4_Mesh-2
usemtl Material.039
f 221/393/12 222/393/12 223/393/12
f 221/393/12 223/393/12 224/393/12
f 224/393/3 223/393/3 225/393/3
f 224/393/3 225/393/3 226/393/3
f 226/393/7 225/393/7 227/393/7
f 226/393/7 227/393/7 228/393/7
f 228/393/1 227/393/1 222/393/1
f 228/393/1 222/393/1 221/393/1
f 224/393/2 226/393/2 228/393/2
f 224/393/2 228/393/2 221/393/2
f 225/393/4 223/393/4 222/393/4
f 225/393/4 222/393/4 227/393/4
